<?xml version="1.0" encoding="UTF-8"?>
<svg xmlns="http://www.w3.org/2000/svg" xmlns:xlink="http://www.w3.org/1999/xlink" width="3750" height="3750" viewBox="0 0 3750 3750">
<path fill-rule="evenodd" fill="rgb(100%, 100%, 100%)" fill-opacity="1" d="M 8.65625 0 L 3741.339844 0 C 3746.140625 0 3750 3.859375 3750 8.660156 L 3750 3741.34375 C 3750 3746.136719 3746.140625 3750 3741.339844 3750 L 8.65625 3750 C 3.863281 3750 0 3746.136719 0 3741.34375 L 0 8.660156 C 0 3.859375 3.863281 0 8.65625 0 Z M 8.65625 0 "/>
<path fill-rule="nonzero" fill="rgb(99.21875%, 85.9375%, 45.092773%)" fill-opacity="1" d="M 1088.859375 1309.730469 C 1078.988281 1307.96875 1072.191406 1307.441406 1057.011719 1307.269531 L 1037.699219 1307.058594 L 1031.910156 1303.769531 C 1006.949219 1289.609375 984.625 1263.871094 968.621094 1230.800781 C 962.152344 1217.429688 955.191406 1200.609375 955.144531 1198.238281 C 955.144531 1197.558594 952.910156 1194.398438 950.214844 1191.21875 C 904.867188 1137.671875 881.78125 1095.910156 875.566406 1056.179688 C 873.632812 1043.828125 873.277344 1044.558594 884.230469 1038.390625 C 895.539062 1032.019531 913.5 1026.949219 932.964844 1024.621094 C 937.480469 1024.078125 958.859375 1023.671875 980.476562 1023.699219 C 1004.5 1023.730469 1021.578125 1023.359375 1024.398438 1022.75 C 1042.578125 1018.769531 1052.03125 1010.5 1056.050781 995.089844 C 1058.890625 984.191406 1057.640625 976.589844 1047.398438 942.171875 C 1039.839844 916.761719 1038.378906 911.148438 1035.828125 897.519531 C 1030.671875 869.980469 1030.390625 853.621094 1034.730469 834.410156 C 1037.210938 823.480469 1039.75 817.679688 1046.609375 807.269531 C 1051.28125 800.179688 1055.160156 796.511719 1065.628906 789.28125 C 1074.640625 783.050781 1081.488281 780.28125 1096.730469 776.691406 C 1113.550781 772.738281 1127.539062 772.488281 1134.5 776.03125 C 1145.160156 781.441406 1162.039062 796.449219 1171.410156 808.871094 C 1173.679688 811.859375 1175.769531 814.078125 1176.058594 813.789062 C 1176.339844 813.5 1178.199219 807.949219 1180.179688 801.460938 C 1185.960938 782.460938 1185.609375 783.160156 1189.128906 783.910156 C 1192.730469 784.679688 1215.671875 793.179688 1238.480469 802.179688 C 1266.808594 813.351562 1281.359375 814.339844 1293.148438 805.890625 C 1298.800781 801.839844 1301.839844 797.839844 1305 790.339844 C 1308.390625 782.308594 1309.390625 774.320312 1309.449219 754.898438 C 1309.601562 709.359375 1313.78125 672.648438 1321.679688 647.75 C 1328.429688 626.429688 1332.789062 616.53125 1340.789062 604.308594 C 1354.839844 582.839844 1364.039062 573.839844 1385.210938 560.871094 C 1402.25 550.441406 1409.488281 547.710938 1436.859375 541.390625 L 1452.789062 537.710938 L 1483.679688 537.800781 C 1502.730469 537.859375 1517.519531 538.339844 1522.289062 539.070312 C 1533.449219 540.78125 1553.070312 544.769531 1560.898438 546.910156 C 1564.621094 547.921875 1572.648438 550.089844 1578.761719 551.71875 C 1595.429688 556.179688 1610.261719 561.730469 1632.820312 571.960938 C 1658.699219 583.691406 1669.480469 589.691406 1695.078125 606.578125 C 1719.550781 622.730469 1726.910156 628.390625 1753.480469 651.511719 C 1781.148438 675.589844 1811.769531 710.039062 1828.320312 735.730469 C 1830.320312 738.839844 1833.78125 744.199219 1836.019531 747.660156 C 1838.25 751.109375 1841.238281 755.949219 1842.660156 758.421875 C 1844.089844 760.890625 1846.941406 764.820312 1848.988281 767.148438 L 1852.71875 771.390625 L 1853.140625 789.691406 C 1853.53125 806.488281 1853.78125 808.578125 1856.148438 815.269531 C 1860.960938 828.78125 1869.519531 834.980469 1878.058594 831.128906 C 1885.050781 827.980469 1885.589844 821.5 1878.878906 821.5 C 1873.691406 821.5 1872.699219 818.398438 1872.710938 802.191406 C 1872.710938 787.011719 1874.660156 775.691406 1880.371094 757.488281 C 1886.820312 736.898438 1891.550781 726.148438 1904.851562 701.800781 C 1912.761719 687.308594 1919.339844 677.480469 1932.628906 660.289062 C 1945.648438 643.460938 1958.441406 630.160156 1976.46875 614.679688 C 1997.980469 596.210938 2000.140625 594.859375 2012.921875 591.828125 C 2030.648438 587.628906 2054.578125 587.808594 2070.839844 592.25 C 2079.238281 594.550781 2079.761719 594.578125 2079.761719 592.730469 C 2079.761719 590.53125 2088.53125 574.160156 2094.230469 565.710938 L 2099.320312 558.171875 L 2111.5 558.800781 C 2125.640625 559.53125 2144.570312 563.460938 2154.109375 567.648438 C 2164.210938 572.089844 2181.171875 583.789062 2187.980469 591.03125 C 2195.488281 599 2206.800781 614.699219 2210.921875 622.878906 C 2215.078125 631.128906 2227.71875 661.019531 2229.789062 667.53125 C 2235.03125 683.921875 2246.089844 699.660156 2255.878906 704.679688 C 2268.640625 711.199219 2287.898438 708.179688 2305.890625 696.820312 L 2309.589844 694.488281 L 2312.398438 696.488281 C 2313.941406 697.589844 2317.128906 700.691406 2319.480469 703.371094 L 2323.75 708.25 L 2326.949219 706.601562 C 2336.019531 701.898438 2354.621094 697.460938 2365.191406 697.460938 C 2374.519531 697.460938 2377.078125 694.75 2377.078125 684.910156 C 2377.078125 675.839844 2385.089844 652.070312 2388.828125 650.070312 C 2389.808594 649.539062 2394.851562 647.730469 2400.019531 646.039062 C 2408.929688 643.121094 2410.199219 642.960938 2424.378906 642.941406 C 2439.019531 642.921875 2439.460938 642.96875 2444.898438 645.730469 C 2454.878906 650.789062 2461.011719 656.570312 2467.050781 666.589844 C 2479.351562 687.019531 2485.199219 714.398438 2485.199219 751.570312 L 2485.199219 764.871094 L 2479.75 770.101562 L 2474.308594 775.328125 L 2475.878906 783.449219 C 2478.449219 796.660156 2479.230469 810.921875 2477.78125 817.921875 C 2477.089844 821.261719 2476.539062 826.039062 2476.558594 828.539062 C 2476.558594 831.039062 2476.558594 834.449219 2476.558594 836.128906 C 2476.558594 839.699219 2471.320312 862.070312 2469.699219 865.621094 C 2468.621094 867.980469 2468.230469 868.078125 2457.339844 868.558594 C 2445.308594 869.101562 2439.628906 870.671875 2424.539062 877.621094 C 2397.410156 890.109375 2363.730469 923.960938 2337.019531 965.570312 C 2334.890625 968.878906 2332.5 971.589844 2331.710938 971.589844 C 2330.910156 971.589844 2327.441406 970.910156 2323.980469 970.089844 L 2317.710938 968.609375 L 2313.871094 973.148438 C 2309.019531 978.878906 2293.609375 991.890625 2285.289062 997.300781 C 2281.789062 999.570312 2274.738281 1003.21875 2269.628906 1005.410156 L 2260.339844 1009.390625 L 2256.210938 1005.390625 C 2251.371094 1000.699219 2239.960938 992.300781 2229.839844 985.960938 C 2207.019531 971.691406 2176.988281 964.910156 2148.839844 967.660156 C 2137 968.820312 2118.628906 973.011719 2108.238281 976.929688 C 2100.558594 979.820312 2082.859375 988.871094 2074.921875 993.949219 C 2067.179688 998.910156 2051.480469 1011.808594 2042.589844 1020.53125 C 2029.699219 1033.179688 2011.160156 1056.289062 2003.269531 1069.539062 C 2001.808594 1071.980469 1999.878906 1074.269531 1998.96875 1074.621094 C 1995.980469 1075.769531 1974.25 1073.109375 1962.839844 1070.210938 C 1956.671875 1068.640625 1948.378906 1065.851562 1944.410156 1064.011719 C 1938.050781 1061.078125 1936.910156 1060.820312 1934.890625 1061.898438 C 1932.910156 1062.960938 1931.96875 1062.808594 1927.921875 1060.75 C 1900.890625 1047.058594 1860.078125 1043.398438 1821.539062 1051.230469 L 1810.019531 1053.570312 L 1805.160156 1050.589844 C 1797.511719 1045.898438 1786.070312 1035.941406 1778.628906 1027.511719 C 1774.730469 1023.101562 1771.628906 1020.320312 1771.410156 1021.03125 C 1771.191406 1021.71875 1770.058594 1026.410156 1768.878906 1031.460938 C 1766.730469 1040.640625 1762.53125 1052.570312 1755.890625 1068.359375 C 1752.488281 1076.429688 1752.109375 1076.921875 1746.878906 1079.859375 C 1709.160156 1101.089844 1677 1127.519531 1645.351562 1163.289062 C 1640.410156 1168.871094 1626.160156 1177.789062 1616.238281 1181.5 C 1606.640625 1185.089844 1591.480469 1188.710938 1581.921875 1189.710938 C 1565.761719 1191.390625 1537.109375 1187.488281 1518.429688 1181.070312 C 1505.148438 1176.5 1487.320312 1167.140625 1477.148438 1159.390625 C 1472.179688 1155.609375 1469.949219 1154.410156 1469.429688 1155.269531 C 1469.039062 1155.929688 1465.96875 1161.03125 1462.621094 1166.601562 C 1459.269531 1172.179688 1454.359375 1179.78125 1451.691406 1183.5 C 1446.121094 1191.261719 1447.390625 1190.949219 1429.621094 1188.851562 C 1404.230469 1185.851562 1369.410156 1191.089844 1342.261719 1202 C 1332.910156 1205.75 1309.839844 1218.050781 1302.378906 1223.261719 C 1288.378906 1233.039062 1277.261719 1242.148438 1266.328125 1252.820312 L 1258.460938 1260.5 L 1244.609375 1259.429688 C 1225.5 1257.941406 1202.589844 1251.75 1182.660156 1242.671875 L 1174.128906 1238.78125 L 1170.441406 1240.441406 C 1167.289062 1241.871094 1166.589844 1242.769531 1165.628906 1246.589844 C 1164.210938 1252.320312 1155.929688 1270.441406 1151.761719 1276.96875 C 1144.101562 1288.941406 1131.628906 1299.738281 1118.21875 1306 C 1105.359375 1312.011719 1103.230469 1312.28125 1088.871094 1309.71875 Z M 2166.460938 655.449219 C 2166.871094 655.089844 2160.949219 643.421875 2156.359375 635.570312 L 2152.640625 629.191406 L 2145.640625 632.371094 C 2141.789062 634.128906 2138.640625 635.859375 2138.640625 636.21875 C 2138.640625 636.578125 2142.011719 641.390625 2146.128906 646.921875 L 2153.609375 656.960938 L 2159.878906 656.339844 C 2163.328125 656 2166.289062 655.589844 2166.460938 655.449219 Z M 1357.320312 1246.25 C 1362.441406 1243.898438 1384.621094 1237.609375 1385.320312 1238.300781 C 1386.480469 1239.460938 1357.691406 1248.820312 1353.679688 1248.570312 C 1352.980469 1248.53125 1354.609375 1247.480469 1357.320312 1246.25 Z M 2070.890625 1076.769531 C 2065.230469 1076.371094 2059.890625 1075.648438 2059.058594 1075.179688 C 2057.78125 1074.460938 2058.691406 1072.941406 2064.410156 1066.160156 C 2076.671875 1051.640625 2093.550781 1037.359375 2107.710938 1029.53125 C 2120.851562 1022.269531 2128.699219 1019.398438 2143.71875 1016.378906 C 2156.328125 1013.851562 2157.589844 1013.761719 2168.339844 1014.738281 C 2176.261719 1015.460938 2182.148438 1016.628906 2187.929688 1018.628906 C 2198.179688 1022.171875 2206.699219 1026.660156 2206.699219 1028.519531 C 2206.699219 1031.660156 2181.300781 1050.089844 2165.578125 1058.359375 C 2148.058594 1067.578125 2128.511719 1073.230469 2103.410156 1076.339844 C 2091.019531 1077.878906 2087.019531 1077.929688 2070.890625 1076.769531 Z M 883.734375 994.980469 C 883.734375 994.691406 885.101562 992.03125 886.769531 989.058594 C 893.3125 977.441406 903.050781 966.941406 914.089844 959.621094 C 921.636719 954.609375 938.902344 946.910156 948.023438 944.480469 C 958.785156 941.609375 976.4375 941.589844 988.703125 944.441406 C 993.609375 945.578125 998.035156 946.511719 998.535156 946.511719 C 999.039062 946.511719 999.253906 944.878906 999.015625 942.890625 C 998.742188 940.609375 999.859375 942.851562 1002.03125 948.929688 C 1004.988281 957.230469 1013.089844 981.929688 1013.089844 982.671875 C 1013.089844 982.808594 996.90625 983.191406 977.128906 983.511719 C 957.351562 983.839844 937.261719 984.550781 932.480469 985.089844 C 921.238281 986.390625 901.808594 990.25 891.699219 993.191406 C 887.316406 994.46875 883.734375 995.28125 883.734375 994.980469 Z M 2410.320312 949.140625 C 2412.570312 945.710938 2434.988281 926.191406 2434.988281 927.671875 C 2434.988281 928.019531 2432.5 930.941406 2429.449219 934.160156 C 2422.789062 941.160156 2407.910156 952.820312 2410.320312 949.140625 Z M 1252 758.578125 C 1237.21875 752.78125 1214.738281 744.109375 1212.429688 743.320312 C 1210.691406 742.738281 1210.980469 742.21875 1215.210938 738.371094 C 1224.671875 729.75 1236.578125 721.640625 1248.980469 715.390625 C 1255.949219 711.878906 1262.199219 709.011719 1262.859375 709.019531 C 1264.179688 709.050781 1264.359375 731.53125 1263.210938 752.070312 L 1262.621094 762.75 Z M 1858.941406 731.140625 C 1857.820312 728.28125 1856.191406 723.621094 1855.289062 720.78125 C 1854.390625 717.941406 1851.109375 710.660156 1847.980469 704.578125 L 1842.300781 693.53125 L 1845.621094 686.941406 C 1854.839844 668.640625 1871.140625 649.429688 1888.628906 636.261719 C 1897.390625 629.671875 1921.800781 617.339844 1926.101562 617.339844 C 1926.410156 617.339844 1925.320312 618.75 1923.691406 620.480469 C 1917.851562 626.660156 1898.679688 654.289062 1890.058594 668.960938 C 1880.5 685.230469 1867.988281 713.199219 1863.128906 729.210938 L 1860.96875 736.339844 Z M 2272.050781 661.019531 C 2270.910156 658.5 2268.421875 652.308594 2266.519531 647.269531 C 2259.160156 627.78125 2247.929688 603.230469 2242.371094 594.488281 C 2237.570312 586.949219 2226.5 572.179688 2221.089844 566.070312 C 2204.75 547.679688 2170.929688 527.679688 2150.238281 524.191406 C 2145.070312 523.320312 2146.03125 522.679688 2157 519.71875 C 2163.78125 517.890625 2167.589844 517.519531 2179.191406 517.53125 C 2191.589844 517.558594 2194.140625 517.851562 2201.628906 520.140625 C 2218.929688 525.441406 2235.75 535.640625 2245.769531 546.921875 C 2258.050781 560.738281 2268.671875 579.648438 2273.199219 595.761719 C 2278.890625 615.980469 2280.050781 624.269531 2280.058594 644.640625 C 2280.058594 660.570312 2279.820312 663.890625 2278.609375 664.660156 C 2275.71875 666.488281 2274.109375 665.589844 2272.050781 661.019531 Z M 2295.511719 447.800781 C 2281.128906 445.980469 2264.921875 440.140625 2254.03125 432.859375 C 2250.140625 430.269531 2244.640625 425.640625 2241.789062 422.578125 C 2238.949219 419.519531 2233.578125 415.210938 2229.859375 412.988281 C 2218.199219 406.03125 2218.109375 405.871094 2217.300781 392.960938 C 2214.058594 341.140625 2242.730469 283.210938 2271.671875 283.121094 C 2275.089844 283.109375 2279.539062 283.96875 2283.441406 285.390625 C 2288.628906 287.289062 2291.550781 287.679688 2300.328125 287.679688 C 2310.570312 287.660156 2311.199219 287.539062 2317.710938 284.25 C 2325.839844 280.121094 2331.820312 276.289062 2345.21875 266.550781 C 2367.980469 250.011719 2385.910156 238.769531 2398.789062 232.96875 C 2411.121094 227.429688 2415.628906 226.140625 2424.53125 225.648438 C 2431.898438 225.25 2433.410156 225.460938 2437.410156 227.460938 C 2441.109375 229.308594 2442.5 230.789062 2444.980469 235.539062 C 2447.960938 241.210938 2448.019531 241.640625 2447.960938 253.898438 C 2447.851562 265.609375 2447.648438 267.21875 2444.269531 278.03125 C 2434.730469 308.488281 2413.320312 336.53125 2385.761719 354.628906 C 2356.640625 373.769531 2330.859375 382.960938 2286.761719 389.921875 C 2275.109375 391.761719 2264.820312 393.558594 2263.878906 393.910156 C 2262.039062 394.621094 2260.71875 398.359375 2261.550781 400.519531 C 2262.46875 402.910156 2272.070312 406.808594 2283.441406 409.410156 C 2303.398438 413.960938 2333.699219 413.691406 2354.769531 408.769531 C 2380.21875 402.820312 2399 394.671875 2420.03125 380.460938 C 2429.410156 374.109375 2449.128906 355.21875 2456.390625 345.601562 C 2462.898438 336.96875 2474.03125 318.011719 2477.519531 309.578125 C 2481.070312 300.988281 2481.820312 299.871094 2480.878906 304.578125 C 2475.410156 331.828125 2457.808594 361.320312 2432.449219 385.691406 C 2401.488281 415.449219 2361.230469 438.300781 2326.378906 445.890625 C 2319.648438 447.359375 2301.078125 448.5 2295.511719 447.800781 Z M 2295.511719 447.800781 "/>
<path fill-rule="nonzero" fill="rgb(99.21875%, 14.109802%, 27.830505%)" fill-opacity="1" d="M 1713.96875 3502.550781 C 1712.148438 3502.003906 1708.730469 3500.222656 1706.371094 3498.59375 C 1702.378906 3495.847656 1701.789062 3495.710938 1698.089844 3496.675781 C 1682.078125 3500.859375 1677.558594 3501.722656 1669.019531 3502.257812 C 1661.230469 3502.746094 1657.691406 3502.484375 1650.679688 3500.902344 C 1635.589844 3497.511719 1635.679688 3497.578125 1630.949219 3485.578125 C 1626.78125 3474.996094 1622.628906 3464.578125 1615.609375 3447.15625 C 1613.480469 3441.847656 1610.140625 3433.375 1608.210938 3428.332031 C 1606.269531 3423.289062 1603.601562 3416.339844 1602.269531 3412.886719 C 1600.929688 3409.4375 1598.839844 3404.007812 1597.609375 3400.820312 C 1596.378906 3397.636719 1593.171875 3389.382812 1590.480469 3382.480469 C 1581.589844 3359.640625 1575.199219 3343.078125 1569.621094 3328.421875 C 1549.25 3274.933594 1550.398438 3278.375 1544.480469 3252.644531 C 1541.460938 3239.496094 1540.558594 3237.191406 1529.519531 3214.515625 C 1517.230469 3189.261719 1516.308594 3187.148438 1510.210938 3170.390625 C 1507.011719 3161.589844 1502.160156 3148.453125 1488.558594 3111.710938 C 1487.28125 3108.257812 1484.648438 3101.09375 1482.730469 3095.78125 C 1480.800781 3090.472656 1478.390625 3083.957031 1477.371094 3081.304688 C 1474.148438 3072.890625 1456.96875 3026.542969 1454.648438 3020.003906 C 1453.429688 3016.554688 1449.769531 3006.5625 1446.519531 2997.804688 C 1443.269531 2989.042969 1438.628906 2976.445312 1436.210938 2969.808594 C 1433.800781 2963.171875 1430.390625 2953.832031 1428.648438 2949.054688 C 1425.320312 2939.933594 1418.539062 2921.253906 1413.230469 2906.582031 C 1396.660156 2860.847656 1391.339844 2846.28125 1388.558594 2839.007812 C 1387.550781 2836.355469 1385.160156 2829.839844 1383.25 2824.53125 C 1381.351562 2819.21875 1378.960938 2812.703125 1377.949219 2810.050781 C 1376.941406 2807.394531 1373.660156 2798.492188 1370.648438 2790.261719 C 1367.640625 2782.03125 1363.109375 2769.652344 1360.558594 2762.75 C 1354.171875 2745.378906 1344.46875 2718.910156 1339.878906 2706.28125 C 1338.628906 2702.828125 1336.089844 2695.878906 1334.25 2690.828125 C 1332.410156 2685.789062 1328.859375 2676.019531 1326.351562 2669.109375 C 1323.851562 2662.210938 1320.289062 2652.441406 1318.449219 2647.390625 C 1316.621094 2642.351562 1313 2632.359375 1310.421875 2625.191406 C 1307.839844 2618.019531 1304.351562 2608.46875 1302.671875 2603.949219 C 1299.78125 2596.199219 1297.058594 2588.75 1293.511719 2578.859375 C 1292.660156 2576.46875 1289.839844 2568.871094 1287.269531 2561.960938 C 1284.691406 2555.058594 1280.179688 2542.898438 1277.238281 2534.941406 C 1270.730469 2517.289062 1265.941406 2504.398438 1260.941406 2491.011719 C 1258.859375 2485.441406 1256.789062 2479.789062 1256.351562 2478.460938 C 1255.898438 2477.140625 1253.75 2471.269531 1251.558594 2465.429688 C 1249.371094 2459.589844 1245.671875 2449.601562 1243.339844 2443.230469 C 1241.011719 2436.859375 1236.21875 2423.828125 1232.699219 2414.269531 C 1226.628906 2397.800781 1215.511719 2367.210938 1210.230469 2352.488281 C 1206.550781 2342.21875 1191.558594 2285.011719 1175.53125 2220.070312 L 1168.101562 2189.980469 L 1161.789062 2190.480469 C 1152.078125 2191.261719 1150.929688 2190.480469 1147.269531 2180.488281 C 1142.769531 2168.191406 1137.839844 2154.578125 1135.261719 2147.359375 C 1130.789062 2134.789062 1118.011719 2099.339844 1114.738281 2090.410156 C 1112.890625 2085.359375 1110.800781 2079.5 1110.089844 2077.371094 C 1109.390625 2075.25 1107 2068.519531 1104.78125 2062.410156 C 1102.558594 2056.300781 1099.730469 2046.53125 1098.5 2040.691406 C 1097.261719 2034.851562 1091.691406 2011.609375 1086.128906 1989.050781 C 1071.320312 1929.058594 1065.46875 1903.890625 1047.289062 1822.078125 L 1041.828125 1797.5 L 1030.980469 1786.851562 C 1011.398438 1767.609375 1002.949219 1752.46875 993.371094 1719.390625 C 990.679688 1710.121094 988.4375 1697.910156 987.414062 1687 C 986.890625 1681.371094 985.683594 1677.480469 981.726562 1668.660156 C 978.96875 1662.5 974.621094 1651.160156 972.070312 1643.460938 C 969.519531 1635.769531 966.167969 1626.691406 964.625 1623.289062 C 958.238281 1609.25 953.367188 1589.289062 951.28125 1568.648438 C 949.445312 1550.441406 951.429688 1495.828125 954.761719 1472.929688 C 957.707031 1452.660156 966.460938 1422.929688 973.75 1408.441406 C 985.1875 1385.691406 1003.148438 1364.148438 1016.601562 1357.058594 C 1036.300781 1346.679688 1071.191406 1348.359375 1117.820312 1361.941406 C 1123.910156 1363.710938 1126.328125 1364.980469 1129.269531 1367.941406 C 1135.558594 1374.28125 1144.941406 1387.480469 1149.808594 1396.839844 L 1154.441406 1405.738281 L 1161.710938 1406.320312 C 1170.050781 1406.96875 1184.859375 1411.199219 1192.640625 1415.140625 C 1200.960938 1419.359375 1211.839844 1427.449219 1218.828125 1434.640625 C 1223.878906 1439.828125 1225.371094 1442.050781 1225.871094 1445.089844 C 1226.210938 1447.210938 1227.53125 1453.730469 1228.808594 1459.570312 C 1230.070312 1465.410156 1232.46875 1476.488281 1234.140625 1484.191406 C 1237.429688 1499.410156 1239.039062 1506.539062 1250.140625 1555.140625 C 1251.480469 1560.980469 1253.390625 1569.019531 1254.398438 1573 C 1255.410156 1576.980469 1257.351562 1585.269531 1258.71875 1591.429688 L 1261.199219 1602.621094 L 1258.730469 1617.011719 C 1256.25 1631.46875 1252.941406 1646.699219 1249.960938 1657.460938 L 1248.359375 1663.25 L 1258.109375 1701.871094 C 1263.460938 1723.101562 1270.25 1749.820312 1273.191406 1761.230469 C 1276.128906 1772.648438 1281.398438 1793.710938 1284.910156 1808.050781 C 1288.410156 1822.390625 1294.960938 1848.671875 1299.460938 1866.449219 C 1303.960938 1884.238281 1314.808594 1927.238281 1323.550781 1962.019531 C 1332.300781 1996.789062 1340.710938 2030.019531 1342.238281 2035.859375 C 1343.769531 2041.710938 1346.808594 2053.429688 1349 2061.929688 C 1356.011719 2089.121094 1358.46875 2097.160156 1369.390625 2128.601562 C 1375.28125 2145.550781 1386.53125 2178.320312 1394.390625 2201.410156 C 1402.261719 2224.511719 1413.800781 2258.179688 1420.039062 2276.230469 C 1431.378906 2309.050781 1519.191406 2571.449219 1534.070312 2616.980469 C 1544.441406 2648.75 1573.921875 2741.199219 1595.308594 2809.082031 C 1597.980469 2817.574219 1602.710938 2832.5625 1605.820312 2842.382812 C 1616.839844 2877.191406 1635.019531 2938.488281 1654.070312 3005.039062 C 1664.851562 3042.707031 1667.128906 3049.714844 1669.121094 3051.222656 C 1676.71875 3057.007812 1687.039062 3075.996094 1703.699219 3114.890625 C 1714.808594 3140.824219 1735.988281 3193.773438 1741.230469 3208.722656 C 1743.101562 3214.03125 1746.871094 3224.457031 1749.621094 3231.886719 C 1767.5 3280.246094 1787.339844 3347.152344 1795.128906 3385.375 C 1797.511719 3397.023438 1797.988281 3401.363281 1797.589844 3407.574219 C 1796.609375 3422.792969 1791.371094 3433.628906 1778.640625 3446.738281 C 1774.820312 3450.683594 1770.46875 3455.648438 1768.96875 3457.773438 C 1765.210938 3463.113281 1755.839844 3471.863281 1749.558594 3475.894531 C 1745.21875 3478.683594 1744.019531 3480.078125 1742.640625 3483.964844 C 1740.390625 3490.296875 1734.480469 3497.835938 1729.679688 3500.488281 C 1724.988281 3503.078125 1718.539062 3503.925781 1713.96875 3502.546875 Z M 2127.628906 3391.59375 C 2122.898438 3387.449219 2115.339844 3376.949219 2111.320312 3368.964844 C 2102.828125 3352.070312 2100.800781 3338.285156 2101.089844 3299.464844 L 2101.308594 3270.503906 L 2098.859375 3265.675781 C 2096 3260.023438 2076.359375 3207.472656 2069.289062 3186.523438 C 2062 3164.960938 2032.820312 3069.800781 2025.339844 3043.171875 C 2017.128906 3013.980469 2000.75 2954.828125 1988.859375 2911.40625 C 1977.839844 2871.140625 1939.71875 2719.160156 1928.828125 2672.011719 C 1912.808594 2602.691406 1896.941406 2530.640625 1897.558594 2530.019531 C 1897.761719 2529.820312 1898.480469 2531.929688 1899.171875 2534.710938 C 1899.851562 2537.488281 1901.421875 2543.238281 1902.660156 2547.480469 C 1903.890625 2551.730469 1906 2559.121094 1907.339844 2563.890625 C 1913.210938 2584.789062 1916.730469 2597.179688 1927.828125 2635.808594 C 1931.878906 2649.878906 1935.941406 2664.210938 1936.878906 2667.660156 C 1937.820312 2671.121094 1940.199219 2679.371094 1942.171875 2686.011719 C 1945.960938 2698.738281 1948.078125 2706.03125 1954.390625 2728 C 1956.519531 2735.429688 1959.269531 2744.769531 1960.480469 2748.75 C 1961.699219 2752.734375 1963.898438 2760.117188 1965.371094 2765.164062 C 1966.839844 2770.207031 1969.03125 2777.589844 1970.230469 2781.574219 C 1971.429688 2785.554688 1973.820312 2793.589844 1975.53125 2799.429688 C 1977.238281 2805.273438 1979.628906 2813.308594 1980.839844 2817.289062 C 1982.050781 2821.269531 1984.429688 2829.308594 1986.148438 2835.148438 C 1987.859375 2840.988281 1990.25 2849.023438 1991.46875 2853.003906 C 1992.691406 2856.988281 1995.058594 2865.023438 1996.738281 2870.863281 C 1998.429688 2876.703125 2000.808594 2884.742188 2002.039062 2888.722656 C 2003.269531 2892.703125 2006.75 2904.214844 2009.789062 2914.304688 C 2014.730469 2930.773438 2018.808594 2944.132812 2027.628906 2972.703125 C 2036.660156 3001.988281 2056.988281 3066.867188 2058.941406 3072.613281 C 2060.199219 3076.332031 2062.621094 3083.933594 2064.320312 3089.507812 C 2066.011719 3095.082031 2068.410156 3102.683594 2069.640625 3106.402344 C 2070.871094 3110.117188 2073.28125 3117.71875 2075 3123.292969 C 2079.738281 3138.707031 2087.28125 3162.386719 2090.351562 3171.558594 C 2091.859375 3176.070312 2099.050781 3198.007812 2106.320312 3220.308594 C 2113.601562 3242.605469 2128.851562 3288.832031 2140.230469 3323.035156 C 2151.601562 3357.238281 2160.570312 3385.558594 2160.148438 3385.96875 C 2159.519531 3386.609375 2133 3394.546875 2131.511719 3394.546875 C 2131.21875 3394.546875 2129.480469 3393.21875 2127.628906 3391.59375 Z M 2174.871094 3362.933594 C 2172.320312 3353.507812 2168.980469 3341.238281 2167.441406 3335.664062 C 2165.910156 3330.089844 2163.109375 3319.878906 2161.21875 3312.976562 C 2159.328125 3306.074219 2156.988281 3297.824219 2156.019531 3294.636719 C 2155.058594 3291.453125 2152.738281 3283.414062 2150.871094 3276.777344 C 2146.621094 3261.65625 2138 3231.816406 2133.308594 3215.964844 C 2131.351562 3209.328125 2128.640625 3199.988281 2127.308594 3195.210938 C 2123.660156 3182.179688 2122.808594 3179.1875 2117.878906 3162.390625 C 2115.390625 3153.894531 2112.738281 3144.609375 2111.980469 3141.75 C 2111.230469 3138.894531 2110.410156 3136.230469 2110.160156 3135.828125 C 2109.910156 3135.429688 2108.660156 3131.246094 2107.378906 3126.542969 C 2106.101562 3121.835938 2103.929688 3114.183594 2102.558594 3109.535156 C 2101.179688 3104.886719 2099 3097.5 2097.71875 3093.125 C 2096.441406 3088.746094 2093.789062 3079.734375 2091.828125 3073.097656 C 2088.769531 3062.6875 2082.070312 3039.773438 2075.769531 3018.074219 C 2074.761719 3014.625 2072.910156 3008.105469 2071.648438 3003.59375 C 2070.390625 2999.082031 2067.730469 2989.960938 2065.75 2983.324219 C 2063.769531 2976.6875 2061.378906 2968.433594 2060.449219 2964.984375 C 2059.519531 2961.53125 2056.75 2951.757812 2054.289062 2943.261719 C 2051.828125 2934.769531 2048.699219 2923.910156 2047.320312 2919.128906 C 2045.960938 2914.351562 2043.628906 2906.316406 2042.160156 2901.273438 C 2040.691406 2896.226562 2038.378906 2888.191406 2037.011719 2883.414062 C 2035.640625 2878.636719 2033.570312 2871.46875 2032.378906 2867.484375 C 2029.898438 2859.101562 2027.578125 2851.035156 2024.339844 2839.492188 C 2023.070312 2834.980469 2019.109375 2821.296875 2015.550781 2809.085938 C 2011.980469 2796.875 2008.851562 2786.015625 2008.570312 2784.949219 C 2008.300781 2783.890625 2004.820312 2771.726562 2000.851562 2757.921875 C 1996.871094 2744.121094 1993.210938 2731.089844 1992.71875 2728.960938 C 1992.21875 2726.839844 1990.78125 2721.628906 1989.519531 2717.378906 C 1988.261719 2713.128906 1986.058594 2705.53125 1984.628906 2700.488281 C 1983.199219 2695.441406 1980.839844 2687.191406 1979.390625 2682.140625 C 1977.941406 2677.101562 1975.601562 2668.851562 1974.191406 2663.800781 C 1970.980469 2652.269531 1961.78125 2619.628906 1958.679688 2608.78125 C 1957.390625 2604.269531 1954.96875 2595.800781 1953.300781 2589.960938 C 1947.648438 2570.171875 1945.609375 2562.96875 1940.269531 2544.109375 C 1934.691406 2524.359375 1932.171875 2515.488281 1927.371094 2498.738281 C 1925.78125 2493.160156 1923.328125 2484.46875 1921.929688 2479.429688 C 1919.570312 2470.929688 1916.96875 2461.75 1911.390625 2442.269531 C 1910.171875 2438.019531 1907.96875 2430.199219 1906.5 2424.890625 C 1903.820312 2415.191406 1900.140625 2402.019531 1895.839844 2386.761719 C 1888.050781 2359.039062 1884.851562 2347.578125 1877.488281 2321.121094 C 1874.46875 2310.230469 1871 2297.859375 1869.800781 2293.609375 C 1868.589844 2289.359375 1866.199219 2280.890625 1864.480469 2274.78125 C 1862.761719 2268.679688 1860.378906 2260.210938 1859.171875 2255.960938 C 1857.96875 2251.710938 1854.511719 2239.328125 1851.480469 2228.449219 C 1848.441406 2217.570312 1844.96875 2205.179688 1843.769531 2200.941406 C 1842.558594 2196.691406 1839.960938 2187.351562 1837.980469 2180.179688 C 1836.019531 2173.019531 1833.820312 2165.191406 1833.121094 2162.808594 C 1826.5 2140.339844 1824.671875 2131.53125 1820.621094 2102.480469 C 1815.289062 2064.289062 1811.378906 2032.570312 1807.589844 1996.769531 C 1803.578125 1958.980469 1804.039062 1961.019531 1799.339844 1959.621094 C 1788.621094 1956.441406 1778.769531 1948.808594 1773.269531 1939.429688 C 1771.769531 1936.859375 1769.570312 1931.011719 1768.378906 1926.429688 C 1767.191406 1921.851562 1764.628906 1912.230469 1762.679688 1905.070312 C 1756.050781 1880.621094 1736.539062 1803.320312 1729.429688 1773.300781 C 1727.289062 1764.28125 1723.558594 1748.640625 1721.128906 1738.550781 C 1713.5 1706.75 1693.628906 1618.609375 1687.839844 1590.859375 C 1671.769531 1513.75 1665.949219 1483.390625 1657.519531 1432.550781 C 1650.988281 1393.128906 1643.441406 1333.429688 1643.441406 1321.230469 C 1643.441406 1319.050781 1642.269531 1315.128906 1640.609375 1311.800781 C 1631.589844 1293.578125 1634.570312 1272.648438 1650.820312 1239.96875 L 1658.738281 1224.039062 L 1659.78125 1211.488281 C 1661.570312 1189.988281 1661.171875 1190.820312 1676.25 1177.050781 C 1708.929688 1147.210938 1731.359375 1131.171875 1763.609375 1114.539062 C 1777.558594 1107.359375 1783.730469 1104.71875 1796.429688 1100.539062 C 1822.859375 1091.828125 1833.640625 1089.980469 1858.21875 1089.910156 L 1876.558594 1089.859375 L 1884.761719 1094.089844 C 1902.949219 1103.460938 1918.75 1116.25 1928.410156 1129.421875 C 1934.839844 1138.179688 1944.691406 1156.910156 1948.019531 1166.679688 C 1950.238281 1173.230469 1952.578125 1183.898438 1953.808594 1193.148438 C 1954.160156 1195.808594 1956.539062 1206.230469 1959.109375 1216.320312 C 1964.21875 1236.449219 1971.308594 1268.53125 1980.328125 1312.371094 C 1983.550781 1328.03125 1987.890625 1349.101562 1989.96875 1359.191406 C 2018.871094 1499.519531 2028.628906 1547.898438 2031.128906 1563.351562 C 2032.46875 1571.578125 2034.378906 1583.308594 2035.371094 1589.410156 C 2036.359375 1595.519531 2038.960938 1610.941406 2041.140625 1623.679688 C 2043.328125 1636.429688 2045.699219 1650.539062 2046.398438 1655.058594 C 2047.761719 1663.769531 2050.640625 1680.550781 2053.761719 1698.011719 C 2054.789062 1703.851562 2056.261719 1712.539062 2057 1717.320312 C 2057.75 1722.101562 2059.699219 1733.769531 2061.328125 1743.25 C 2062.96875 1752.730469 2064.300781 1761.851562 2064.289062 1763.519531 C 2064.289062 1769.320312 2061.429688 1779.929688 2058.160156 1786.488281 L 2054.871094 1793.089844 L 2058.128906 1809.261719 C 2063.398438 1835.308594 2078.238281 1911.820312 2084.121094 1943.199219 C 2087.109375 1959.128906 2093.179688 1991.269531 2097.621094 2014.640625 C 2102.050781 2038 2109.648438 2078.828125 2114.5 2105.371094 C 2119.351562 2131.921875 2127.609375 2176.878906 2132.859375 2205.28125 C 2138.109375 2233.691406 2148.5 2290.511719 2155.96875 2331.550781 C 2168.378906 2399.859375 2171.199219 2415.300781 2178.710938 2455.78125 C 2185.46875 2492.269531 2191.121094 2523.238281 2196.039062 2550.871094 C 2199.019531 2567.589844 2202.949219 2589.53125 2204.769531 2599.621094 C 2206.589844 2609.699219 2210.5 2631.421875 2213.460938 2647.878906 C 2216.421875 2664.339844 2220.769531 2688.449219 2223.109375 2701.460938 C 2225.460938 2714.460938 2228.019531 2729.019531 2228.789062 2733.789062 C 2229.570312 2738.570312 2234.828125 2769.632812 2240.480469 2802.8125 C 2252.148438 2871.3125 2253.921875 2882.050781 2259.390625 2917.6875 C 2263.300781 2943.089844 2272.039062 2987.789062 2273.710938 2990.910156 C 2275.488281 2994.242188 2277.808594 3005.21875 2282.019531 3030.371094 C 2287.070312 3060.414062 2287.019531 3060.175781 2297.078125 3108.816406 C 2305.820312 3151.070312 2312.828125 3183.667969 2320.558594 3217.898438 C 2324.769531 3236.539062 2325.898438 3243.296875 2325.910156 3249.792969 C 2325.910156 3262.710938 2322.148438 3274.417969 2315.019531 3283.710938 C 2311.730469 3287.996094 2311.5 3288.777344 2310.519531 3299.277344 C 2309.261719 3312.808594 2308.269531 3318.234375 2305.039062 3329.265625 C 2301.128906 3342.621094 2299.371094 3345.988281 2295.730469 3347.097656 C 2294.011719 3347.621094 2287.828125 3349.414062 2281.988281 3351.082031 C 2276.148438 3352.753906 2267.019531 3355.398438 2261.71875 3356.960938 C 2256.410156 3358.527344 2248.148438 3360.949219 2243.378906 3362.347656 C 2238.601562 3363.742188 2231.429688 3365.863281 2227.449219 3367.054688 C 2223.46875 3368.25 2215.210938 3370.632812 2209.109375 3372.347656 C 2203 3374.066406 2194.75 3376.507812 2190.761719 3377.773438 C 2179.011719 3381.503906 2180.171875 3382.585938 2174.859375 3362.9375 Z M 2743.28125 3303.824219 C 2731.789062 3300.816406 2724.230469 3296.289062 2712.890625 3285.648438 C 2706.339844 3279.5 2699.570312 3269.511719 2701.03125 3268.160156 C 2701.511719 3267.714844 2713.539062 3262.726562 2727.75 3257.066406 C 2768.988281 3240.644531 2780.351562 3235.683594 2812.539062 3220.023438 C 2836.589844 3208.324219 2847.628906 3202.214844 2859.730469 3193.917969 C 2864.78125 3190.460938 2870.839844 3186.3125 2873.199219 3184.703125 C 2878.789062 3180.902344 2884 3175.480469 2889.539062 3167.71875 C 2893.359375 3162.367188 2893.988281 3160.820312 2893.929688 3156.996094 C 2893.75 3145.066406 2886.019531 3140.273438 2882.371094 3149.828125 C 2880.179688 3155.574219 2873.609375 3159.835938 2851.679688 3169.742188 C 2833.398438 3177.996094 2777.800781 3198.828125 2748.71875 3208.316406 C 2747.390625 3208.75 2726.320312 3215.816406 2701.898438 3224.023438 L 2657.5 3238.945312 L 2655.21875 3236.867188 C 2651.660156 3233.621094 2642.25 3221.828125 2638.539062 3215.964844 C 2619.851562 3186.390625 2608.238281 3153.160156 2600.628906 3107.367188 C 2595.199219 3074.746094 2586.390625 3015.980469 2586.859375 3015.507812 C 2587.011719 3015.359375 2587.890625 3018.449219 2588.789062 3022.375 C 2592.660156 3039.003906 2605.769531 3083.761719 2611.5 3099.953125 C 2616.480469 3113.992188 2617.628906 3115.773438 2621.5 3115.386719 C 2627.839844 3114.75 2628 3116.53125 2616.449219 3058.617188 C 2593.148438 2941.769531 2568.421875 2796.765625 2536.449219 2589.480469 C 2532.839844 2566.109375 2525.210938 2478.460938 2521.910156 2422.480469 C 2520.601562 2400.328125 2520.589844 2400.25 2516.179688 2390.070312 C 2512.640625 2381.898438 2503.890625 2354.96875 2498.339844 2335.121094 C 2497 2330.339844 2494.128906 2314.480469 2491.949219 2299.878906 C 2454.621094 2049.140625 2446.019531 1989.328125 2427.371094 1851.011719 C 2418.371094 1784.28125 2417.941406 1779.671875 2413.28125 1701.390625 C 2412.46875 1687.851562 2411.378906 1669.820312 2410.859375 1661.328125 C 2410.328125 1652.828125 2409.46875 1635.890625 2408.949219 1623.679688 C 2408.179688 1606 2407.300781 1597.410156 2404.621094 1581.539062 C 2395.519531 1527.621094 2383.898438 1436.449219 2374.25 1343.25 C 2372.679688 1328.121094 2368.558594 1293.371094 2365.089844 1266.03125 C 2352.511719 1166.730469 2349.179688 1133.269531 2348.421875 1098.550781 C 2347.640625 1062.179688 2349.621094 1049.109375 2358.699219 1030.980469 C 2368.070312 1012.25 2386.539062 995.160156 2405.96875 987.230469 C 2413.449219 984.171875 2415.359375 983.808594 2425.941406 983.398438 C 2433.511719 983.101562 2439.480469 983.371094 2442.839844 984.148438 C 2452.789062 986.480469 2469.148438 995.238281 2476.730469 1002.308594 C 2478.191406 1003.660156 2479.519531 1004.589844 2479.699219 1004.359375 C 2479.890625 1004.128906 2480.949219 1002.429688 2482.070312 1000.570312 C 2488.738281 989.53125 2502.941406 981.359375 2515.601562 981.28125 L 2519.460938 981.261719 L 2534.128906 1010.941406 C 2548.539062 1040.109375 2557.410156 1055 2562.648438 1058.851562 L 2565.300781 1060.789062 L 2571.03125 1056.558594 L 2572.539062 1061.621094 C 2576.601562 1075.269531 2594.628906 1149.320312 2602.910156 1186.390625 C 2605.039062 1195.949219 2608.570312 1208.769531 2610.738281 1214.871094 C 2616.070312 1229.871094 2631.070312 1277.390625 2640 1307.539062 C 2654.019531 1354.929688 2674.199219 1433.5 2685.851562 1486.121094 C 2694.871094 1526.851562 2703.25 1567.679688 2703.78125 1573.480469 C 2704.558594 1582.03125 2708.828125 1623.671875 2712.109375 1654.570312 C 2718.238281 1712.488281 2719.871094 1727.578125 2721.789062 1744.339844 C 2724.570312 1768.558594 2726.488281 1788.898438 2726.511719 1794.210938 C 2726.519531 1796.691406 2725.679688 1801.421875 2724.640625 1804.730469 L 2722.769531 1810.75 L 2725.011719 1815.191406 C 2730.179688 1825.429688 2731.5 1832.910156 2735.609375 1875.140625 C 2736.410156 1883.371094 2737.960938 1898.359375 2739.050781 1908.441406 C 2740.128906 1918.53125 2742.128906 1937.210938 2743.46875 1949.960938 C 2744.820312 1962.699219 2746.980469 1982.679688 2748.269531 1994.359375 C 2749.570312 2006.039062 2751.949219 2027.980469 2753.558594 2043.109375 C 2755.179688 2058.238281 2757.558594 2080.390625 2758.851562 2092.339844 C 2761.421875 2115.980469 2765.550781 2155.28125 2769.460938 2193.210938 C 2770.820312 2206.488281 2772.601562 2223.429688 2773.390625 2230.859375 C 2774.191406 2238.289062 2775.699219 2252.851562 2776.730469 2263.199219 C 2777.769531 2273.550781 2779.46875 2289.410156 2780.511719 2298.429688 C 2783.429688 2323.710938 2789.730469 2381.800781 2795.539062 2436.960938 C 2796.851562 2449.429688 2799.019531 2470.070312 2800.371094 2482.808594 C 2801.710938 2495.550781 2803.039062 2508.578125 2803.320312 2511.769531 C 2803.601562 2514.949219 2804.878906 2526.679688 2806.148438 2537.828125 C 2807.429688 2548.980469 2809.570312 2567.871094 2810.921875 2579.820312 C 2814.359375 2610.269531 2818.78125 2649.03125 2821.609375 2673.460938 C 2826.488281 2715.660156 2828.898438 2736.820312 2829.410156 2742 C 2830.628906 2754.191406 2836.320312 2799.3125 2842.371094 2844.800781 C 2843.921875 2856.480469 2846.308594 2874.726562 2847.671875 2885.34375 C 2851.320312 2913.792969 2855.679688 2945.167969 2858.28125 2961.605469 C 2859.539062 2969.570312 2861.71875 2983.902344 2863.128906 2993.460938 C 2867.03125 3019.882812 2871.078125 3045.125 2873.75 3059.582031 C 2875.058594 3066.75 2877.46875 3080 2879.070312 3089.027344 C 2883.75 3115.191406 2888.71875 3138.074219 2890.230469 3140.429688 C 2891.910156 3143.03125 2895.519531 3143.265625 2897.609375 3140.90625 C 2902.558594 3135.34375 2904.148438 3071.011719 2901.371094 2989.113281 C 2900.191406 2954.152344 2897.691406 2901.234375 2896.949219 2895.476562 C 2896.710938 2893.617188 2896.238281 2886.234375 2895.921875 2879.066406 C 2895.589844 2871.898438 2894.300781 2849.09375 2893.039062 2828.386719 C 2891.789062 2807.683594 2890.5 2785.527344 2890.171875 2779.15625 C 2889.839844 2772.785156 2888.761719 2756.929688 2887.75 2743.921875 C 2886.75 2730.910156 2885.640625 2715.929688 2885.300781 2710.621094 C 2884.960938 2705.308594 2883.628906 2687.769531 2882.339844 2671.628906 C 2881.058594 2655.5 2880.058594 2640.949219 2880.109375 2639.300781 C 2880.339844 2632.558594 2900.171875 2754.800781 2909.929688 2823.078125 C 2915.519531 2862.207031 2921.878906 2922.046875 2924.5 2960.152344 C 2926.160156 2984.363281 2925.878906 3045.488281 2924.011719 3065.507812 C 2922.308594 3083.675781 2917.070312 3113.734375 2912.839844 3129.566406 C 2908.851562 3144.523438 2905.078125 3154.40625 2896.988281 3171.148438 C 2885.539062 3194.820312 2877.441406 3206.023438 2858.640625 3224.167969 C 2849.039062 3233.441406 2834.589844 3244.484375 2829.519531 3246.429688 C 2828.601562 3246.785156 2825.199219 3252.265625 2821.96875 3258.609375 C 2815.308594 3271.660156 2807.261719 3283.066406 2800.5 3289.015625 C 2797.96875 3291.238281 2792.039062 3295.054688 2787.308594 3297.496094 C 2771.808594 3305.5 2757.519531 3307.554688 2743.289062 3303.824219 Z M 2430.828125 1108.929688 C 2430.589844 1108 2430.390625 1108.761719 2430.390625 1110.609375 C 2430.390625 1112.46875 2430.578125 1113.230469 2430.828125 1112.308594 C 2431.070312 1111.371094 2431.070312 1109.859375 2430.828125 1108.929688 Z M 2430.828125 1108.929688 "/>
<path fill-rule="nonzero" fill="rgb(0%, 0%, 0%)" fill-opacity="1" d="M 1648.46875 3558.890625 C 1643.351562 3554.050781 1629.449219 3536.632812 1624 3528.242188 C 1621.589844 3524.527344 1617.199219 3517.78125 1614.25 3513.253906 C 1604.109375 3497.648438 1595.910156 3483.796875 1587.710938 3468.394531 C 1583.179688 3459.898438 1579.160156 3452.515625 1578.769531 3451.984375 C 1577.878906 3450.777344 1574.390625 3444.460938 1568.261719 3432.914062 C 1559.410156 3416.261719 1555.539062 3408.574219 1547.441406 3391.652344 C 1543 3382.359375 1536.128906 3368.023438 1532.148438 3359.796875 C 1514.898438 3324.050781 1502.261719 3296.648438 1491.410156 3271.46875 C 1488.890625 3265.628906 1485.601562 3258.027344 1484.089844 3254.578125 C 1482.578125 3251.125 1474.140625 3231.359375 1465.328125 3210.65625 C 1456.519531 3189.949219 1448.289062 3170.617188 1447.03125 3167.699219 C 1444.699219 3162.300781 1431.929688 3131.316406 1423.351562 3110.261719 C 1420.761719 3103.890625 1417.050781 3094.550781 1415.121094 3089.507812 C 1413.179688 3084.464844 1409.300781 3074.472656 1406.480469 3067.304688 C 1397.800781 3045.253906 1388.601562 3021.636719 1383.160156 3007.457031 C 1381.828125 3004.003906 1379.710938 2998.574219 1378.441406 2995.390625 C 1374.640625 2985.847656 1367.410156 2967.175781 1362.75 2954.847656 C 1360.351562 2948.476562 1357.121094 2940.003906 1355.578125 2936.023438 C 1354.039062 2932.042969 1351.558594 2925.523438 1350.050781 2921.542969 C 1348.539062 2917.5625 1343.519531 2904.3125 1338.878906 2892.101562 C 1334.238281 2879.890625 1329.878906 2868.160156 1329.179688 2866.039062 C 1328.488281 2863.914062 1325.03125 2854.359375 1321.488281 2844.800781 C 1317.949219 2835.246094 1314.46875 2825.6875 1313.761719 2823.5625 C 1313.050781 2821.441406 1309.578125 2811.882812 1306.058594 2802.328125 C 1302.53125 2792.769531 1297.441406 2778.871094 1294.761719 2771.4375 C 1292.070312 2764.003906 1288.671875 2754.664062 1287.210938 2750.683594 C 1285.75 2746.699219 1281.199219 2734.101562 1277.089844 2722.691406 C 1272.988281 2711.269531 1268.128906 2697.808594 1266.300781 2692.769531 C 1264.460938 2687.71875 1261.960938 2680.769531 1260.738281 2677.320312 C 1259.511719 2673.871094 1256.230469 2664.75 1253.449219 2657.050781 C 1246.449219 2637.671875 1238.710938 2615.710938 1227.429688 2583.199219 C 1212.769531 2540.96875 1205.660156 2520.519531 1203.101562 2513.210938 C 1201.519531 2508.699219 1199.429688 2502.621094 1198.449219 2499.699219 C 1197.480469 2496.78125 1192.710938 2482.878906 1187.859375 2468.808594 C 1183 2454.738281 1177.320312 2438.230469 1175.238281 2432.128906 C 1173.148438 2426.019531 1168.371094 2412.121094 1164.609375 2401.238281 C 1155.128906 2373.839844 1113.210938 2247.890625 1099.539062 2205.761719 C 1093.328125 2186.648438 1087.21875 2167.96875 1085.949219 2164.25 C 1082.839844 2155.121094 1064.71875 2098.898438 1057.949219 2077.371094 C 1050.058594 2052.25 1046.910156 2042.359375 1044.921875 2036.351562 C 1043.949219 2033.429688 1041.621094 2026.050781 1039.738281 2019.941406 C 1037.859375 2013.839844 1031.730469 1994.070312 1026.109375 1976.019531 C 1020.488281 1957.96875 1014.621094 1939.070312 1013.070312 1934.03125 C 1011.511719 1928.980469 1007.019531 1914.429688 1003.089844 1901.691406 C 999.15625 1888.941406 994.375 1873.308594 992.46875 1866.941406 C 979.828125 1824.738281 976.121094 1812.28125 972.527344 1799.851562 C 970.304688 1792.148438 967.492188 1782.589844 966.285156 1778.609375 C 964.003906 1771.101562 959.789062 1756.488281 958.207031 1750.621094 C 957.707031 1748.761719 954.382812 1737.25 950.816406 1725.03125 C 947.25 1712.820312 943.511719 1699.789062 942.507812 1696.078125 C 941.503906 1692.359375 939.65625 1685.628906 938.398438 1681.109375 C 937.144531 1676.601562 935.003906 1668.78125 933.644531 1663.738281 C 932.285156 1658.691406 929.347656 1647.839844 927.117188 1639.609375 C 924.886719 1631.378906 922.515625 1622.25 921.851562 1619.339844 C 921.175781 1616.410156 918.664062 1606.210938 916.257812 1596.648438 C 904.011719 1548.058594 898.746094 1521.058594 897.582031 1500.878906 C 897.070312 1491.878906 897.242188 1489.320312 898.632812 1485.679688 C 900.671875 1480.328125 903.1875 1478.351562 906.730469 1479.289062 C 909.558594 1480.039062 910.875 1483.890625 908.75 1485.210938 C 905.667969 1487.109375 909.25 1505.078125 918.640625 1534.871094 C 929.183594 1568.308594 944.691406 1614.25 957.574219 1650.230469 C 958.8125 1653.679688 962.230469 1663.449219 965.175781 1671.941406 C 982.460938 1721.820312 988.546875 1739.121094 1010.179688 1799.851562 C 1025.351562 1842.429688 1035.980469 1872.511719 1038.660156 1880.449219 C 1040.769531 1886.660156 1045.441406 1899.871094 1049.769531 1911.820312 C 1051.980469 1917.929688 1054.148438 1924.011719 1054.578125 1925.339844 C 1055.019531 1926.671875 1056.960938 1932.101562 1058.910156 1937.410156 C 1060.859375 1942.710938 1063.671875 1950.53125 1065.171875 1954.78125 C 1069.609375 1967.390625 1082.230469 2002.421875 1085.53125 2011.25 C 1087.210938 2015.769531 1089.160156 2021.191406 1089.859375 2023.320312 C 1091.039062 2026.890625 1096.5 2042.109375 1101.128906 2054.691406 C 1102.210938 2057.609375 1104.71875 2064.558594 1106.710938 2070.140625 C 1113.710938 2089.71875 1134.988281 2148.898438 1138.121094 2157.5 C 1141.101562 2165.691406 1151.441406 2194.300781 1158.359375 2213.480469 C 1163.289062 2227.171875 1169.5 2244.058594 1170.960938 2247.75 C 1171.691406 2249.609375 1173.828125 2255.371094 1175.710938 2260.550781 C 1184.511719 2284.820312 1188.640625 2296.121094 1191.679688 2304.230469 C 1192.671875 2306.878906 1194.980469 2313.179688 1196.820312 2318.21875 C 1198.648438 2323.269531 1202.558594 2333.910156 1205.511719 2341.871094 C 1208.460938 2349.839844 1213.691406 2364.171875 1217.140625 2373.730469 C 1220.589844 2383.28125 1226.289062 2398.921875 1229.800781 2408.480469 C 1233.308594 2418.03125 1238.078125 2431.070312 1240.398438 2437.441406 C 1246.46875 2454.160156 1263.171875 2499.398438 1270.320312 2518.519531 C 1281.679688 2548.910156 1289.378906 2569.671875 1290.160156 2572.101562 C 1290.601562 2573.429688 1293.839844 2582.328125 1297.371094 2591.890625 C 1300.898438 2601.441406 1305.679688 2614.480469 1308 2620.851562 C 1310.308594 2627.21875 1313.710938 2636.558594 1315.550781 2641.601562 C 1317.390625 2646.640625 1321.949219 2659.238281 1325.691406 2669.601562 C 1329.429688 2679.949219 1335.359375 2696.238281 1338.878906 2705.800781 C 1342.390625 2715.351562 1347.171875 2728.378906 1349.488281 2734.75 C 1354.410156 2748.269531 1362.011719 2768.960938 1370.039062 2790.742188 C 1388.371094 2840.4375 1398.578125 2868.367188 1406.929688 2891.617188 C 1409.5 2898.785156 1412.980469 2908.34375 1414.660156 2912.855469 C 1416.328125 2917.367188 1419.808594 2926.925781 1422.390625 2934.09375 C 1424.96875 2941.261719 1429.96875 2954.941406 1433.5 2964.5 C 1437.03125 2974.054688 1440.28125 2982.960938 1440.71875 2984.289062 C 1441.160156 2985.617188 1443.550781 2992.132812 1446.019531 2998.769531 C 1448.488281 3005.40625 1452.179688 3015.394531 1454.21875 3020.96875 C 1456.269531 3026.546875 1462.128906 3042.398438 1467.261719 3056.203125 C 1477.601562 3084.058594 1493.238281 3126.542969 1498.359375 3140.667969 C 1502.769531 3152.855469 1513.660156 3182.394531 1515.980469 3188.453125 C 1517 3191.105469 1519.179688 3196.972656 1520.828125 3201.484375 C 1522.480469 3205.996094 1525.070312 3212.949219 1526.601562 3216.929688 C 1530.460938 3226.984375 1536.558594 3243.109375 1542.121094 3257.957031 C 1544.699219 3264.859375 1549.460938 3277.453125 1552.691406 3285.949219 C 1555.929688 3294.445312 1560.691406 3307.042969 1563.28125 3313.945312 C 1567.988281 3326.507812 1580.390625 3358.796875 1588.859375 3380.550781 C 1591.339844 3386.921875 1594.378906 3394.742188 1595.609375 3397.925781 C 1602.039062 3414.589844 1608.878906 3431.988281 1616.648438 3451.5 C 1621.410156 3463.445312 1627.808594 3479.738281 1630.890625 3487.699219 C 1638.941406 3508.5625 1651.871094 3540.375 1652.589844 3541.097656 C 1652.929688 3541.4375 1655.890625 3540.734375 1659.179688 3539.539062 C 1673.121094 3534.464844 1726.960938 3516.734375 1746.128906 3510.910156 C 1757.558594 3507.441406 1778.539062 3500.957031 1792.769531 3496.507812 C 1807 3492.054688 1822.550781 3487.246094 1827.328125 3485.816406 C 1832.109375 3484.386719 1839.269531 3482.203125 1843.25 3480.957031 C 1847.238281 3479.710938 1855.269531 3477.308594 1861.109375 3475.613281 C 1872.710938 3472.25 1882.640625 3469.269531 1904.070312 3462.734375 C 1911.769531 3460.382812 1923.5 3456.855469 1930.128906 3454.890625 C 1936.769531 3452.925781 1945.460938 3450.332031 1949.441406 3449.128906 C 1959.160156 3446.183594 1982.871094 3439.242188 2003.980469 3433.160156 C 2009.820312 3431.476562 2017.210938 3429.304688 2020.390625 3428.332031 C 2023.578125 3427.363281 2030.960938 3425.191406 2036.800781 3423.507812 C 2042.640625 3421.824219 2050.679688 3419.433594 2054.660156 3418.199219 C 2062 3415.921875 2063.738281 3415.414062 2090.378906 3407.71875 C 2098.609375 3405.34375 2110.769531 3401.78125 2117.410156 3399.804688 C 2124.039062 3397.828125 2136.621094 3394.152344 2145.359375 3391.632812 C 2154.101562 3389.113281 2161.378906 3386.65625 2161.550781 3386.164062 C 2161.710938 3385.675781 2155.371094 3365.96875 2147.460938 3342.371094 C 2139.550781 3318.769531 2129.601562 3288.820312 2125.339844 3275.8125 C 2121.078125 3262.804688 2110.410156 3230.226562 2101.621094 3203.414062 C 2088.328125 3162.863281 2070.160156 3106.082031 2059.941406 3073.097656 C 2058.699219 3069.117188 2051.410156 3045.875 2043.730469 3021.453125 C 2029.941406 2977.621094 2020.449219 2946.890625 2011.671875 2917.683594 C 2009.191406 2909.453125 2006.160156 2899.460938 2004.929688 2895.480469 C 2003.699219 2891.496094 2001.320312 2883.460938 1999.640625 2877.621094 C 1997.949219 2871.78125 1995.558594 2863.746094 1994.328125 2859.761719 C 1993.089844 2855.78125 1990.699219 2847.746094 1989.019531 2841.90625 C 1987.339844 2836.066406 1984.941406 2828.027344 1983.710938 2824.046875 C 1982.46875 2820.066406 1980.078125 2812.027344 1978.398438 2806.1875 C 1976.71875 2800.347656 1974.328125 2792.3125 1973.089844 2788.332031 C 1971.851562 2784.347656 1969.46875 2776.3125 1967.78125 2770.472656 C 1966.101562 2764.632812 1963.929688 2757.246094 1962.949219 2754.0625 C 1961.980469 2750.875 1959.808594 2743.488281 1958.128906 2737.648438 C 1956.441406 2731.808594 1954.261719 2724.429688 1953.269531 2721.238281 C 1949.910156 2710.441406 1928.871094 2637.160156 1914.871094 2587.539062 C 1911.648438 2576.128906 1905.769531 2555.28125 1901.789062 2541.210938 C 1897.808594 2527.140625 1893 2509.980469 1891.109375 2503.078125 C 1889.21875 2496.179688 1886.558594 2486.621094 1885.199219 2481.839844 C 1883.851562 2477.070312 1881.699219 2469.460938 1880.441406 2464.949219 C 1879.171875 2460.441406 1876.851562 2452.179688 1875.269531 2446.609375 C 1873.691406 2441.03125 1869.941406 2427.570312 1866.941406 2416.679688 C 1863.929688 2405.800781 1860.378906 2392.980469 1859.050781 2388.210938 C 1857.71875 2383.429688 1855.609375 2375.828125 1854.359375 2371.320312 C 1853.109375 2366.800781 1850.910156 2358.980469 1849.480469 2353.941406 C 1848.058594 2348.890625 1846.339844 2342.601562 1845.679688 2339.941406 C 1844.28125 2334.289062 1836.421875 2305.46875 1833.46875 2295.160156 C 1832.359375 2291.230469 1830.890625 2285.800781 1830.230469 2283.089844 C 1829.078125 2278.328125 1824.480469 2261.378906 1812.390625 2217.351562 C 1810.929688 2212.039062 1808.578125 2203.351562 1807.171875 2198.039062 C 1805.75 2192.730469 1802.421875 2180.371094 1799.75 2170.570312 C 1797.089844 2160.769531 1794.550781 2151.210938 1794.101562 2149.328125 C 1793.660156 2147.449219 1791.25 2138.308594 1788.75 2129.019531 C 1786.25 2119.730469 1783.121094 2108 1781.789062 2102.960938 C 1779.339844 2093.621094 1777.148438 2085.328125 1773.828125 2072.789062 C 1770.398438 2059.859375 1764.949219 2038.890625 1760.71875 2022.359375 C 1758.410156 2013.328125 1754.941406 1999.859375 1753 1992.429688 C 1743.03125 1954.230469 1703.488281 1796.761719 1695.191406 1762.199219 C 1692.191406 1749.730469 1688.460938 1734.308594 1686.890625 1727.929688 C 1685.320312 1721.558594 1682.960938 1711.789062 1681.628906 1706.210938 C 1680.308594 1700.640625 1677.871094 1690.429688 1676.21875 1683.53125 C 1674.570312 1676.621094 1672.171875 1666.53125 1670.878906 1661.089844 C 1669.589844 1655.640625 1667.480469 1646.738281 1666.179688 1641.300781 C 1661.621094 1622.070312 1652.929688 1584.910156 1650.21875 1573 C 1645.378906 1551.710938 1637.289062 1515.71875 1634.160156 1501.570312 C 1632.808594 1495.460938 1630.878906 1486.769531 1629.871094 1482.261719 C 1628.859375 1477.75 1626.480469 1466.890625 1624.578125 1458.128906 C 1622.691406 1449.371094 1620.101562 1437.421875 1618.828125 1431.578125 C 1615.570312 1416.578125 1609.890625 1389.210938 1603.390625 1357.25 C 1601.980469 1350.351562 1599.769531 1339.488281 1598.480469 1333.121094 C 1590.25 1292.75 1589.230469 1286.53125 1590.488281 1284.128906 C 1590.980469 1283.199219 1592.160156 1282.441406 1593.109375 1282.441406 C 1599.351562 1282.441406 1603.5 1295.761719 1632.191406 1407.929688 C 1635.660156 1421.46875 1640.5 1440.371094 1642.949219 1449.921875 C 1645.410156 1459.480469 1650.019531 1477.511719 1653.21875 1489.980469 C 1656.398438 1502.460938 1661.128906 1520.921875 1663.699219 1531.011719 C 1666.289062 1541.101562 1671 1559.558594 1674.191406 1572.039062 C 1681.511719 1600.691406 1689.398438 1631.320312 1691.71875 1640.089844 C 1692.691406 1643.808594 1695.078125 1652.929688 1697.019531 1660.359375 C 1698.960938 1667.789062 1701.398438 1677.128906 1702.460938 1681.109375 C 1706.621094 1696.851562 1710.320312 1710.960938 1712.441406 1719.25 C 1713.679688 1724.019531 1716.03125 1733.03125 1717.671875 1739.28125 C 1719.320312 1745.511719 1722 1755.71875 1723.628906 1761.960938 C 1728.300781 1779.75 1731.230469 1790.890625 1733.859375 1800.808594 C 1735.199219 1805.859375 1737.070312 1813.019531 1738.019531 1816.738281 C 1738.960938 1820.460938 1741.339844 1829.359375 1743.289062 1836.53125 C 1747.21875 1850.988281 1750.570312 1863.488281 1754.011719 1876.589844 C 1755.269531 1881.371094 1757.628906 1890.058594 1759.269531 1895.898438 C 1760.898438 1901.738281 1763.050781 1909.558594 1764.050781 1913.269531 C 1769.800781 1934.691406 1772.308594 1944.070312 1774.269531 1951.398438 C 1775.480469 1955.910156 1778.070312 1965.46875 1780.03125 1972.640625 C 1783.839844 1986.558594 1785.871094 1994.03125 1789.570312 2007.871094 C 1790.839844 2012.648438 1795.890625 2031.109375 1800.789062 2048.898438 C 1805.679688 2066.691406 1810.488281 2084.28125 1811.480469 2088 C 1812.46875 2091.710938 1814.609375 2099.53125 1816.230469 2105.371094 C 1817.851562 2111.210938 1820.191406 2119.679688 1821.429688 2124.191406 C 1822.679688 2128.710938 1828.578125 2149.769531 1834.570312 2171.011719 C 1840.550781 2192.25 1846.25 2212.628906 1847.238281 2216.300781 C 1848.230469 2219.96875 1850.53125 2228.230469 1852.351562 2234.640625 C 1855.890625 2247.128906 1861.640625 2267.550781 1869.488281 2295.539062 C 1872.171875 2305.089844 1875.589844 2317.261719 1877.078125 2322.570312 C 1878.578125 2327.871094 1880.921875 2336.238281 1882.289062 2341.148438 C 1883.648438 2346.058594 1885.878906 2354.089844 1887.238281 2359.011719 C 1888.609375 2363.921875 1890.949219 2372.28125 1892.441406 2377.589844 C 1893.941406 2382.898438 1897.421875 2395.28125 1900.171875 2405.101562 C 1906.441406 2427.519531 1911.859375 2446.769531 1919.871094 2475.089844 C 1949.019531 2578.179688 1948.429688 2576.101562 1955.089844 2599.128906 C 1956.699219 2604.699219 1960.429688 2617.839844 1963.378906 2628.328125 C 1976.960938 2676.660156 2018.25 2821.511719 2030.578125 2864.105469 C 2034.878906 2878.972656 2042.890625 2906.773438 2048.378906 2925.886719 C 2061.160156 2970.371094 2079.480469 3033.71875 2084.128906 3049.449219 C 2085.539062 3054.226562 2089.089844 3066.390625 2092.03125 3076.476562 C 2098.339844 3098.144531 2099.128906 3100.808594 2106.109375 3124.742188 C 2117.488281 3163.71875 2124.410156 3187.601562 2125.128906 3190.382812 C 2125.539062 3191.976562 2128.558594 3202.402344 2131.820312 3213.550781 C 2140.308594 3242.566406 2158.300781 3305.3125 2161.71875 3317.804688 C 2163.308594 3323.644531 2167.429688 3338.691406 2170.871094 3351.242188 C 2174.308594 3363.792969 2177.421875 3375.632812 2177.78125 3377.554688 C 2178.148438 3379.480469 2178.761719 3381.257812 2179.171875 3381.503906 C 2179.570312 3381.753906 2182.449219 3381.128906 2185.570312 3380.117188 C 2188.699219 3379.105469 2199.71875 3375.839844 2210.070312 3372.859375 C 2240.25 3364.167969 2248.808594 3361.671875 2254.960938 3359.78125 C 2258.148438 3358.800781 2269.21875 3355.582031 2279.578125 3352.625 C 2289.929688 3349.667969 2305.351562 3345.246094 2313.851562 3342.800781 C 2322.339844 3340.355469 2333.199219 3337.257812 2337.980469 3335.917969 C 2351.761719 3332.054688 2354.820312 3331.179688 2364.039062 3328.449219 C 2368.820312 3327.035156 2377.730469 3324.425781 2383.828125 3322.644531 C 2408.660156 3315.410156 2429.640625 3309.234375 2443.679688 3305.027344 C 2448.199219 3303.675781 2454.058594 3301.976562 2456.710938 3301.253906 C 2459.371094 3300.523438 2464.140625 3299.105469 2467.328125 3298.09375 C 2470.519531 3297.078125 2477.898438 3294.871094 2483.738281 3293.191406 C 2489.578125 3291.507812 2497.621094 3289.117188 2501.601562 3287.878906 C 2505.578125 3286.644531 2513.621094 3284.246094 2519.460938 3282.550781 C 2579.519531 3265.128906 2727.140625 3217.382812 2780.570312 3198.097656 C 2835.589844 3178.242188 2858.289062 3168.734375 2875.441406 3158.355469 C 2879.730469 3155.761719 2881.5 3153.949219 2883.160156 3150.484375 C 2887.171875 3142.097656 2892.621094 3145.238281 2892.871094 3156.074219 C 2892.980469 3161.027344 2892.609375 3162.171875 2889.230469 3167.074219 C 2884.558594 3173.851562 2878.351562 3180.21875 2872.441406 3184.285156 C 2849.449219 3200.109375 2841.851562 3204.558594 2816.769531 3216.882812 C 2786.839844 3231.59375 2786.121094 3231.933594 2768.988281 3239.40625 C 2754.539062 3245.714844 2692.828125 3270.375 2677.769531 3275.859375 C 2675.109375 3276.828125 2668.820312 3279.203125 2663.769531 3281.136719 C 2653.519531 3285.070312 2643.71875 3288.605469 2635.78125 3291.234375 C 2632.859375 3292.203125 2618.960938 3296.976562 2604.890625 3301.847656 C 2566.179688 3315.25 2515.230469 3332.160156 2494.359375 3338.527344 C 2491.179688 3339.496094 2483.359375 3341.898438 2476.980469 3343.859375 C 2463.859375 3347.898438 2451.699219 3351.546875 2443.199219 3353.996094 C 2440.011719 3354.921875 2431.980469 3357.304688 2425.339844 3359.3125 C 2418.699219 3361.320312 2410.671875 3363.707031 2407.480469 3364.621094 C 2404.300781 3365.535156 2396.261719 3367.90625 2389.628906 3369.886719 C 2366.960938 3376.65625 2361.140625 3378.363281 2354.871094 3380.074219 C 2351.421875 3381.019531 2340.128906 3384.253906 2329.769531 3387.269531 C 2313.019531 3392.144531 2299.78125 3395.835938 2279.578125 3401.257812 C 2276.128906 3402.179688 2268.089844 3404.359375 2261.71875 3406.097656 C 2255.351562 3407.832031 2246.441406 3410.246094 2241.929688 3411.460938 C 2237.421875 3412.671875 2227.859375 3415.269531 2220.691406 3417.230469 C 2213.53125 3419.191406 2203.839844 3421.785156 2199.179688 3422.996094 C 2194.511719 3424.207031 2190.46875 3425.410156 2190.210938 3425.671875 C 2189.949219 3425.933594 2190.21875 3428.265625 2190.808594 3430.859375 C 2191.398438 3433.453125 2193.109375 3442.300781 2194.609375 3450.523438 C 2197.558594 3466.601562 2197.371094 3468.875 2193.109375 3468.875 C 2190.21875 3468.875 2189.511719 3467.371094 2182.109375 3445.710938 C 2179.289062 3437.480469 2176.730469 3430.441406 2176.398438 3430.070312 C 2176.070312 3429.695312 2172.761719 3430.195312 2169.050781 3431.1875 C 2165.328125 3432.167969 2154.910156 3434.949219 2145.878906 3437.359375 C 2126.03125 3442.65625 2104.679688 3448.136719 2046.929688 3462.75 C 1970.589844 3482.070312 1942.421875 3488.996094 1884.761719 3502.617188 C 1864.320312 3507.445312 1843.25 3512.453125 1837.941406 3513.746094 C 1825.480469 3516.777344 1798.019531 3522.984375 1768.929688 3529.339844 C 1762.820312 3530.671875 1755 3532.417969 1751.550781 3533.214844 C 1743.039062 3535.183594 1719.441406 3540.019531 1707.628906 3542.210938 C 1702.320312 3543.203125 1695.988281 3544.460938 1693.570312 3545.019531 C 1691.148438 3545.578125 1681.839844 3547.144531 1672.878906 3548.507812 C 1663.910156 3549.867188 1656.46875 3551.09375 1656.320312 3551.234375 C 1656.191406 3551.371094 1656.660156 3553.207031 1657.390625 3555.308594 C 1660.03125 3562.992188 1654.941406 3565.039062 1648.46875 3558.898438 Z M 1838.609375 3415.121094 C 1837.578125 3413.09375 1834.519531 3406.113281 1831.789062 3399.601562 C 1827.011719 3388.191406 1826 3385.726562 1820.109375 3370.898438 C 1808.148438 3340.789062 1803.339844 3328.78125 1801.730469 3325.042969 C 1800.699219 3322.65625 1798.050781 3315.921875 1795.839844 3310.082031 C 1791.191406 3297.816406 1788.671875 3291.304688 1781.050781 3271.953125 C 1778.019531 3264.253906 1774.539062 3255.347656 1773.308594 3252.164062 C 1762.371094 3223.765625 1758.351562 3213.234375 1752.960938 3198.832031 C 1738.738281 3160.851562 1733.589844 3147.148438 1728.179688 3132.949219 C 1725.050781 3124.71875 1721.460938 3115.160156 1720.21875 3111.710938 C 1718.96875 3108.257812 1716.648438 3101.960938 1715.070312 3097.710938 C 1713.480469 3093.464844 1710.121094 3084.34375 1707.601562 3077.441406 C 1705.078125 3070.539062 1701.820312 3061.632812 1700.359375 3057.652344 C 1698.898438 3053.671875 1691.53125 3033.039062 1683.988281 3011.800781 C 1666.191406 2961.714844 1665.808594 2960.613281 1663.71875 2954.363281 C 1662.730469 2951.445312 1660.140625 2944.058594 1657.949219 2937.953125 C 1655.75 2931.847656 1651.988281 2921.207031 1649.578125 2914.304688 C 1638.328125 2882.074219 1628.601562 2853.976562 1627.019531 2849.144531 C 1626.070312 2846.222656 1620.949219 2831.019531 1615.640625 2815.359375 C 1610.339844 2799.695312 1600.03125 2768.636719 1592.738281 2746.339844 C 1585.441406 2724.039062 1577.410156 2699.5 1574.878906 2691.800781 C 1570.820312 2679.46875 1554.039062 2627.75 1545.75 2602.019531 C 1544.121094 2596.980469 1541.980469 2590.460938 1541 2587.539062 C 1540.019531 2584.621094 1536.570312 2573.769531 1533.351562 2563.410156 C 1530.121094 2553.058594 1525.140625 2537.199219 1522.289062 2528.179688 C 1516.359375 2509.398438 1508.929688 2485.511719 1504.429688 2470.738281 C 1502.738281 2465.171875 1499.070312 2453.21875 1496.269531 2444.191406 C 1493.480469 2435.171875 1488.710938 2419.53125 1485.660156 2409.441406 C 1482.628906 2399.359375 1479.558594 2389.371094 1478.851562 2387.238281 C 1478.140625 2385.121094 1475.738281 2377.300781 1473.519531 2369.871094 C 1471.289062 2362.429688 1467.390625 2349.621094 1464.859375 2341.390625 C 1456.609375 2314.589844 1454.949219 2309.089844 1454.21875 2306.160156 C 1453.839844 2304.558594 1450.410156 2293.050781 1446.609375 2280.570312 C 1442.820312 2268.101562 1438.371094 2253.328125 1436.71875 2247.75 C 1435.070312 2242.179688 1432.929688 2235.011719 1431.949219 2231.828125 C 1430.21875 2226.171875 1426.089844 2211.910156 1417.160156 2180.660156 C 1414.730469 2172.171875 1411.648438 2161.53125 1410.320312 2157.019531 C 1407.769531 2148.320312 1404.050781 2135.410156 1399.761719 2120.328125 C 1398.320312 2115.289062 1396.140625 2107.691406 1394.898438 2103.441406 C 1393.660156 2099.191406 1391.308594 2090.941406 1389.660156 2085.101562 C 1381.238281 2055.230469 1375.808594 2036.019531 1373.691406 2028.628906 C 1372.390625 2024.121094 1370.191406 2016.300781 1368.800781 2011.25 C 1367.398438 2006.210938 1365.039062 1997.738281 1363.550781 1992.429688 C 1362.058594 1987.121094 1359.21875 1976.910156 1357.25 1969.738281 C 1355.289062 1962.578125 1353.089844 1954.761719 1352.378906 1952.371094 C 1351.679688 1949.980469 1349.710938 1942.808594 1348.03125 1936.441406 C 1346.351562 1930.070312 1343.960938 1921.160156 1342.71875 1916.648438 C 1341.480469 1912.140625 1339.140625 1903.449219 1337.519531 1897.339844 C 1335.910156 1891.238281 1332.640625 1879.078125 1330.28125 1870.320312 C 1327.910156 1861.558594 1324.609375 1849.179688 1322.929688 1842.808594 C 1321.269531 1836.429688 1318.808594 1827.089844 1317.488281 1822.050781 C 1316.160156 1817.011719 1314.070312 1808.96875 1312.839844 1804.191406 C 1311.601562 1799.410156 1309.058594 1789.640625 1307.179688 1782.46875 C 1290.109375 1717.148438 1268.449219 1629.480469 1250.660156 1553.691406 C 1242.609375 1519.410156 1227.78125 1452.058594 1225.371094 1438.820312 C 1224.828125 1435.898438 1223.339844 1428.519531 1222.050781 1422.410156 C 1220.75 1416.308594 1218.589844 1405.878906 1217.230469 1399.238281 C 1215.878906 1392.609375 1214.578125 1386.289062 1214.351562 1385.199219 C 1213.960938 1383.339844 1213.390625 1383.25 1204.929688 1383.621094 C 1191.988281 1384.179688 1180.429688 1381.621094 1149.191406 1371.25 C 1093.53125 1352.761719 1071.140625 1348.320312 1042.53125 1350.058594 C 1023.449219 1351.230469 1012.019531 1355.539062 995.863281 1367.660156 C 972.570312 1385.121094 950.40625 1421.398438 932.375 1471.570312 C 929.09375 1480.691406 928.265625 1486.449219 930.070312 1487.570312 C 931.992188 1488.761719 931.050781 1491.949219 928.496094 1492.929688 C 920.847656 1495.839844 914.625 1486.941406 914.625 1473.121094 C 914.625 1463.640625 917.390625 1445.160156 920.910156 1431.101562 C 930.824219 1391.488281 947.867188 1360.191406 970.617188 1339.808594 C 978.460938 1332.789062 984.085938 1328.410156 988.855469 1325.621094 L 993.097656 1323.140625 L 983.0625 1318.339844 C 932.324219 1294.039062 879.863281 1233.871094 846.523438 1161.738281 C 838.347656 1144.050781 836.542969 1139.429688 832.507812 1125.890625 C 823.710938 1096.371094 822.171875 1074.179688 827.4375 1052.789062 C 830.304688 1041.140625 838.664062 1027.160156 848.570312 1017.460938 C 855.773438 1010.410156 873.550781 1000.21875 886.148438 995.929688 C 910.316406 987.691406 930.886719 985.121094 977.96875 984.429688 C 996.617188 984.160156 1012.378906 983.628906 1013.011719 983.238281 C 1014.28125 982.460938 1012.890625 977.570312 1005.738281 957.128906 C 997.726562 934.308594 991.539062 909.511719 988.839844 889.429688 C 983.816406 852.019531 987.894531 819.621094 1000.589844 796.078125 C 1011.640625 775.589844 1022.328125 763.78125 1041.128906 751.269531 C 1054.210938 742.570312 1063.488281 738.441406 1079.210938 734.351562 C 1098.429688 729.351562 1110.441406 728 1129.890625 728.691406 C 1151.191406 729.449219 1164.539062 731.210938 1181.050781 735.441406 C 1206.179688 741.890625 1211.808594 743.640625 1227.871094 750.039062 C 1239.890625 754.839844 1260.769531 762.890625 1262.621094 763.449219 C 1264.511719 764.03125 1264.558594 763.519531 1264.828125 739.679688 C 1265.160156 710.449219 1266.210938 695.628906 1269.480469 673.808594 C 1272.820312 651.480469 1275.988281 639.640625 1286.261719 611.191406 C 1293.390625 591.410156 1313.71875 560.621094 1329.378906 545.878906 C 1346.878906 529.410156 1375.878906 511.839844 1396.800781 505.050781 C 1406.089844 502.03125 1423.488281 497.769531 1439.269531 494.628906 C 1450.199219 492.460938 1452.75 492.339844 1484.160156 492.429688 C 1515.28125 492.519531 1518.539062 492.691406 1533.769531 495.089844 C 1563.191406 499.75 1605.851562 511.308594 1628.230469 520.691406 C 1657.898438 533.121094 1682.539062 545.371094 1700.589844 556.660156 C 1713.578125 564.78125 1735.28125 579.738281 1745.5 587.621094 C 1778.199219 612.828125 1815.609375 652.25 1833.710938 680.570312 C 1843.789062 696.351562 1856.761719 724.058594 1859.148438 734.929688 C 1859.511719 736.621094 1860.121094 738 1860.46875 738 C 1860.820312 738 1862.339844 734.191406 1863.851562 729.550781 C 1876 692 1899.859375 649.710938 1926.390625 618.699219 C 1935.628906 607.898438 1962.808594 581.390625 1972.609375 573.621094 C 1987.238281 562.019531 2016 544.410156 2031.980469 537.28125 C 2045.988281 531.019531 2065.589844 525.488281 2085.769531 522.070312 C 2112.671875 517.53125 2150.761719 522.339844 2173.660156 533.179688 C 2189.890625 540.859375 2205.339844 551.539062 2216.351562 562.679688 C 2228.738281 575.21875 2241.589844 593.269531 2248.75 608.171875 C 2254.570312 620.28125 2264.390625 643.121094 2265.570312 647.269531 C 2266.53125 650.621094 2273.910156 667.53125 2274.410156 667.53125 C 2275.910156 667.53125 2294.488281 656.910156 2305.640625 649.691406 C 2318.289062 641.488281 2323.539062 638.140625 2325.429688 637.070312 C 2326.488281 636.46875 2329.96875 634.429688 2333.148438 632.550781 C 2358.070312 617.820312 2371.5 611.710938 2393.480469 605.148438 C 2418.449219 597.699219 2449.589844 599.519531 2466.851562 609.441406 C 2476.28125 614.859375 2485.570312 621.839844 2490.820312 627.460938 C 2495.738281 632.710938 2505.460938 646.230469 2505.460938 647.808594 C 2505.460938 648.140625 2506.269531 649.570312 2507.269531 650.980469 C 2512.199219 657.980469 2518.101562 675.230469 2522.519531 695.53125 C 2524.5 704.679688 2525.019531 710.191406 2525.429688 726.898438 C 2525.898438 745.558594 2525.730469 748.410156 2523.421875 762.621094 C 2516.820312 803.140625 2498.628906 836.460938 2483.109375 836.460938 C 2476.871094 836.460938 2476.050781 830.011719 2479.890625 811.179688 C 2483.878906 791.621094 2485.480469 774.378906 2485.550781 750.070312 C 2485.660156 724.269531 2484.5 713.710938 2479.730469 695.53125 C 2475.058594 677.691406 2467.121094 661.960938 2458.980469 654.398438 C 2454.390625 650.140625 2447.21875 645.46875 2442.949219 643.960938 C 2437.621094 642.089844 2423.28125 640.371094 2418.429688 641.03125 C 2412.210938 641.871094 2399.878906 645.128906 2390.640625 648.359375 C 2379.378906 652.289062 2352.539062 666.519531 2337.519531 676.519531 C 2325.890625 684.261719 2303.808594 697.339844 2296.140625 701.03125 C 2286.46875 705.679688 2280.578125 707.089844 2270.730469 707.101562 C 2263.171875 707.109375 2261.789062 706.808594 2256.289062 703.960938 C 2245.910156 698.589844 2238 686.898438 2229.480469 664.339844 C 2218.359375 634.890625 2210.558594 618.96875 2200.25 604.730469 C 2195.980469 598.828125 2190.199219 591.71875 2187.421875 588.929688 C 2182.910156 584.421875 2169.230469 574.730469 2159.878906 569.421875 C 2149.519531 563.539062 2122.269531 557.46875 2106.390625 557.511719 C 2095.96875 557.53125 2073.269531 561.089844 2060.449219 564.710938 C 2051.011719 567.371094 2022.460938 580.75 2009.769531 588.460938 C 1987.859375 601.769531 1954.191406 631.769531 1937.269531 653.058594 C 1917.75 677.601562 1909.601562 690.160156 1896.828125 715.320312 C 1879.929688 748.640625 1870.171875 784.019531 1871.539062 807.019531 C 1871.820312 811.800781 1872.609375 817.101562 1873.289062 818.800781 C 1874.371094 821.480469 1875.058594 821.929688 1878.429688 822.179688 C 1883.148438 822.53125 1884.089844 824.871094 1880.871094 828.300781 C 1876.539062 832.898438 1869.570312 832.5 1864.261719 827.351562 C 1856.75 820.050781 1853.839844 808.800781 1853.960938 787.488281 L 1854.070312 771.820312 L 1849.828125 766.738281 C 1847.5 763.941406 1841.949219 755.789062 1837.5 748.621094 C 1825.628906 729.480469 1810.179688 708.21875 1799.988281 696.980469 C 1783.488281 678.769531 1769.421875 664.589844 1756.441406 653.089844 C 1729.070312 628.839844 1724.398438 625.199219 1697.621094 607.269531 C 1674.410156 591.730469 1659.878906 583.621094 1634.300781 571.921875 C 1603.898438 558.011719 1592.5 554 1561.800781 546.398438 C 1528.710938 538.210938 1518.230469 536.910156 1484.179688 536.820312 C 1457.988281 536.75 1454.820312 536.921875 1444.609375 538.980469 C 1416.121094 544.761719 1403.929688 548.820312 1389.578125 557.308594 C 1367.679688 570.261719 1360.359375 576.421875 1349.050781 591.398438 C 1336.269531 608.320312 1331.679688 616.640625 1325.171875 634.679688 C 1319.398438 650.671875 1316.171875 663.601562 1313.25 682.5 C 1310.808594 698.28125 1310.28125 705.289062 1309.480469 732.691406 C 1308.269531 774.140625 1307.941406 778.828125 1305.710938 786.039062 C 1302.109375 797.648438 1297.179688 803.71875 1287.738281 808.128906 C 1283.871094 809.941406 1281.269531 810.390625 1274.648438 810.390625 C 1264.71875 810.410156 1256.148438 808.320312 1240.859375 802.171875 C 1183.449219 779.089844 1158.179688 772.75 1123.5 772.75 C 1110.53125 772.75 1098.390625 774.691406 1084.238281 779 C 1075.441406 781.691406 1065.609375 787.46875 1055.671875 795.820312 C 1050.058594 800.519531 1041.640625 812.578125 1037.578125 821.710938 C 1035.039062 827.421875 1032.160156 841.300781 1031 853.359375 C 1029.53125 868.621094 1034.941406 902.808594 1043.441406 932.03125 C 1044.761719 936.539062 1047.789062 946.910156 1050.191406 955.070312 C 1055.921875 974.570312 1057.109375 982.800781 1055.570312 992.050781 C 1054.03125 1001.25 1051.050781 1006.980469 1044.96875 1012.441406 C 1034.671875 1021.710938 1025.851562 1023.238281 987.15625 1022.488281 C 958.28125 1021.929688 934.019531 1023.058594 920.808594 1025.589844 C 907.34375 1028.160156 895.207031 1031.941406 887.410156 1035.960938 C 873.878906 1042.949219 870.148438 1046.570312 864.3125 1058.359375 C 861.429688 1064.179688 861.242188 1065.230469 860.820312 1078.148438 C 860.386719 1091.269531 860.5 1092.351562 863.847656 1106.269531 C 868.480469 1125.570312 872.601562 1136.859375 883.226562 1159.390625 C 913.832031 1224.269531 963.125 1280.78125 1013.75 1309.019531 L 1018.738281 1311.800781 L 1029.351562 1310.109375 C 1047.230469 1307.261719 1060.648438 1307.070312 1079.230469 1309.398438 C 1104.128906 1312.53125 1122.660156 1317.128906 1159.359375 1329.300781 C 1179.25 1335.898438 1191.390625 1339.371094 1199.46875 1340.75 C 1202.378906 1341.25 1203.269531 1340.941406 1205.339844 1338.679688 C 1208.140625 1335.609375 1212.429688 1329.050781 1219.691406 1316.710938 C 1227.890625 1302.78125 1242.03125 1281.628906 1248.730469 1273.269531 C 1263.488281 1254.859375 1289.550781 1231.890625 1309.539062 1219.671875 C 1321.070312 1212.628906 1341.261719 1202.929688 1351.449219 1199.539062 C 1356.230469 1197.941406 1365.789062 1195.21875 1372.691406 1193.46875 L 1385.238281 1190.300781 L 1412.269531 1190.269531 L 1439.300781 1190.25 L 1453.96875 1193.890625 C 1470.628906 1198.039062 1476.449219 1200.089844 1491.320312 1207.050781 C 1517.089844 1219.121094 1541.421875 1239.078125 1556.710938 1260.71875 C 1565.71875 1273.449219 1571.058594 1286.351562 1571.058594 1295.371094 C 1571.058594 1302.058594 1569.710938 1304.730469 1565.429688 1306.511719 C 1559.710938 1308.871094 1553.230469 1305.640625 1536.308594 1291.960938 C 1494.949219 1258.519531 1470.558594 1244.988281 1438.828125 1237.890625 C 1426.320312 1235.089844 1425.039062 1234.988281 1407.921875 1235.371094 C 1392.570312 1235.71875 1388.628906 1236.140625 1379.789062 1238.371094 C 1355.378906 1244.558594 1337.550781 1253.179688 1316.679688 1268.921875 C 1293.628906 1286.308594 1279.121094 1303.269531 1259.289062 1336.011719 C 1244.011719 1361.25 1235.171875 1372.730469 1227.929688 1376.769531 C 1225.679688 1378.019531 1225.441406 1376.660156 1233.5 1407.929688 C 1236.441406 1419.339844 1241.238281 1438.019531 1244.171875 1449.441406 C 1247.109375 1460.851562 1250.859375 1475.398438 1252.5 1481.769531 C 1254.160156 1488.140625 1258.058594 1503.351562 1261.179688 1515.558594 C 1264.308594 1527.769531 1268.171875 1542.761719 1269.761719 1548.859375 C 1272.398438 1558.949219 1273.890625 1564.601562 1279.621094 1586.269531 C 1280.628906 1590.121094 1282.320312 1596.511719 1283.351562 1600.480469 C 1285.039062 1606.941406 1287.71875 1616.96875 1297.039062 1651.671875 C 1298.609375 1657.511719 1300.988281 1666.410156 1302.328125 1671.460938 C 1314.128906 1715.859375 1323.578125 1750.289062 1339.019531 1805.160156 C 1340.359375 1809.929688 1342.5 1817.53125 1343.761719 1822.050781 C 1345.019531 1826.558594 1347.359375 1834.820312 1348.949219 1840.390625 C 1350.539062 1845.960938 1353.199219 1855.519531 1354.859375 1861.621094 C 1356.519531 1867.730469 1358.679688 1875.328125 1359.660156 1878.519531 C 1360.640625 1881.699219 1362.769531 1889.089844 1364.398438 1894.929688 C 1366.03125 1900.769531 1369.601562 1913.371094 1372.328125 1922.921875 C 1375.058594 1932.480469 1377.609375 1941.601562 1378.011719 1943.191406 C 1378.699219 1945.941406 1384.988281 1967.660156 1397.011719 2008.839844 C 1399.960938 2018.929688 1403.128906 2029.78125 1404.050781 2032.96875 C 1404.96875 2036.160156 1407.339844 2044.191406 1409.328125 2050.828125 C 1415.039062 2069.941406 1417.710938 2079.050781 1418.699219 2082.679688 C 1419.210938 2084.539062 1420.640625 2089.320312 1421.890625 2093.300781 C 1423.140625 2097.28125 1425.550781 2105.320312 1427.230469 2111.160156 C 1428.910156 2117 1431.300781 2125.03125 1432.539062 2129.019531 C 1433.769531 2133 1436.160156 2141.03125 1437.851562 2146.871094 C 1439.53125 2152.710938 1441.921875 2160.75 1443.160156 2164.730469 C 1444.390625 2168.710938 1446.78125 2176.75 1448.460938 2182.589844 C 1450.148438 2188.429688 1452.519531 2196.46875 1453.738281 2200.449219 C 1454.949219 2204.429688 1457.359375 2212.46875 1459.078125 2218.308594 C 1460.808594 2224.148438 1464.070312 2235.011719 1466.339844 2242.441406 C 1468.609375 2249.871094 1472.078125 2261.390625 1474.058594 2268.019531 C 1476.03125 2274.660156 1479.511719 2286.171875 1481.789062 2293.609375 C 1484.058594 2301.039062 1487.511719 2312.328125 1489.441406 2318.699219 C 1493.269531 2331.300781 1495.988281 2340.140625 1503.511719 2364.550781 C 1506.210938 2373.320312 1509.691406 2384.609375 1511.238281 2389.648438 C 1521.019531 2421.519531 1529.839844 2450.089844 1531.949219 2456.738281 C 1534.121094 2463.578125 1544.820312 2498.109375 1552.75 2523.828125 C 1560.660156 2549.488281 1587.769531 2636.019531 1589.351562 2640.640625 C 1590.351562 2643.550781 1593.769531 2654.191406 1596.960938 2664.28125 C 1602.96875 2683.328125 1615.109375 2721.28125 1623.199219 2746.339844 C 1625.769531 2754.300781 1631.640625 2772.546875 1636.238281 2786.878906 C 1651.769531 2835.222656 1655.160156 2845.535156 1686.941406 2940.847656 C 1716.160156 3028.480469 1733.941406 3081.15625 1746.730469 3117.980469 C 1749.488281 3125.945312 1752.539062 3134.851562 1753.511719 3137.769531 C 1754.480469 3140.691406 1758.179688 3151.335938 1761.730469 3161.421875 C 1765.289062 3171.507812 1768.96875 3182.152344 1769.921875 3185.070312 C 1770.871094 3187.992188 1775.429688 3201.242188 1780.058594 3214.515625 C 1784.679688 3227.789062 1789.238281 3241.035156 1790.191406 3243.957031 C 1791.140625 3246.875 1795.910156 3260.777344 1800.789062 3274.847656 C 1812.261719 3307.941406 1830.070312 3361.46875 1836.769531 3382.960938 C 1847.75 3418.167969 1847.710938 3417.960938 1843.078125 3418.496094 C 1840.910156 3418.746094 1840.179688 3418.1875 1838.628906 3415.117188 Z M 2358.980469 3236.960938 C 2355.839844 3232.980469 2343.871094 3185.628906 2331.601562 3128.605469 C 2325.828125 3101.800781 2324.058594 3093.632812 2321.109375 3080.335938 C 2319.46875 3072.90625 2317.070312 3061.828125 2315.78125 3055.722656 C 2314.488281 3049.617188 2312.101562 3038.320312 2310.46875 3030.625 C 2308.839844 3022.925781 2306.671875 3012.5 2305.648438 3007.457031 C 2304.628906 3002.414062 2302.238281 2991.117188 2300.351562 2982.359375 C 2298.449219 2973.597656 2295.851562 2961.433594 2294.570312 2955.328125 C 2293.28125 2949.222656 2291.101562 2939.015625 2289.71875 2932.644531 C 2288.339844 2926.273438 2286.378906 2916.933594 2285.359375 2911.890625 C 2284.328125 2906.847656 2281.949219 2895.335938 2280.039062 2886.308594 C 2276.148438 2867.835938 2271.71875 2846.398438 2268.949219 2832.734375 C 2267.929688 2827.691406 2265.769531 2817.265625 2264.140625 2809.566406 C 2260.128906 2790.566406 2257.078125 2776.03125 2253.609375 2759.371094 C 2252.011719 2751.671875 2249.160156 2737.988281 2247.269531 2728.960938 C 2245.378906 2719.941406 2242.308594 2704.949219 2240.441406 2695.660156 C 2238.570312 2686.371094 2236 2673.769531 2234.730469 2667.660156 C 2233.449219 2661.558594 2231.289062 2650.921875 2229.910156 2644.019531 C 2227.140625 2630.148438 2223.820312 2613.640625 2220.679688 2598.160156 C 2219.558594 2592.589844 2218.058594 2584.988281 2217.371094 2581.269531 C 2216.019531 2574.03125 2212.300781 2555.359375 2208.621094 2537.351562 C 2207.378906 2531.238281 2205.199219 2520.378906 2203.78125 2513.210938 C 2202.359375 2506.050781 2199.960938 2494.101562 2198.441406 2486.671875 C 2196.929688 2479.238281 2193.25 2460.558594 2190.269531 2445.160156 C 2187.300781 2429.769531 2183.839844 2411.949219 2182.578125 2405.578125 C 2179.769531 2391.261719 2176.21875 2372.730469 2172.429688 2352.488281 C 2170.828125 2344 2168.46875 2331.621094 2167.179688 2324.980469 C 2165.890625 2318.339844 2163.480469 2305.53125 2161.820312 2296.5 C 2160.148438 2287.480469 2157.769531 2274.660156 2156.519531 2268.03125 C 2155.28125 2261.390625 2153.089844 2249.660156 2151.679688 2241.960938 C 2150.261719 2234.269531 2147.859375 2221.449219 2146.359375 2213.480469 C 2143.121094 2196.410156 2139.898438 2179.121094 2135.75 2156.53125 C 2134.089844 2147.511719 2131.699219 2134.691406 2130.449219 2128.050781 C 2127.390625 2111.859375 2119.929688 2070.589844 2115 2042.621094 C 2113.691406 2035.191406 2111.300781 2021.730469 2109.679688 2012.699219 C 2106.25 1993.570312 2103.101562 1975.820312 2099.640625 1956.230469 C 2098.289062 1948.53125 2095.890625 1935.070312 2094.328125 1926.308594 C 2092.769531 1917.539062 2090.339844 1903.859375 2088.949219 1895.898438 C 2087.550781 1887.929688 2085.378906 1875.769531 2084.121094 1868.871094 C 2082.859375 1861.960938 2081.550781 1854.359375 2081.210938 1851.980469 C 2080.859375 1849.589844 2079.550781 1841.980469 2078.289062 1835.078125 C 2077.019531 1828.179688 2074.660156 1814.710938 2073.03125 1805.160156 C 2071.398438 1795.601562 2068.988281 1781.921875 2067.679688 1774.75 C 2066.359375 1767.578125 2063.53125 1751.289062 2061.378906 1738.550781 C 2059.238281 1725.808594 2054.871094 1699.960938 2051.671875 1681.109375 C 2046.25 1649.179688 2031.761719 1561.75 2026.238281 1527.628906 C 2019.53125 1486.160156 2016.148438 1464.871094 2010.75 1430.128906 C 2009.46875 1421.910156 2007.128906 1406.921875 2005.558594 1396.828125 C 2003.988281 1386.738281 2001.550781 1370.449219 2000.140625 1360.628906 C 1998.730469 1350.808594 1996.539062 1335.609375 1995.261719 1326.839844 C 1986.371094 1265.648438 1978.511719 1200.980469 1975.398438 1163.441406 L 1974.21875 1149.191406 L 1970.761719 1147.089844 C 1965.96875 1144.171875 1955.339844 1135.609375 1951.859375 1131.851562 C 1950.261719 1130.140625 1943.859375 1124.421875 1937.628906 1119.148438 C 1920.058594 1104.300781 1906.21875 1096.679688 1888.308594 1091.980469 C 1876.859375 1088.988281 1876.070312 1088.910156 1856.769531 1089.011719 C 1835.171875 1089.109375 1827.839844 1090.179688 1807.539062 1096.171875 C 1791.480469 1100.910156 1782.078125 1104.640625 1765.910156 1112.671875 C 1746.578125 1122.269531 1738.589844 1127.019531 1722.808594 1138.269531 C 1705.558594 1150.578125 1692.789062 1160.839844 1678.261719 1174.089844 C 1644.238281 1205.109375 1621.988281 1231.570312 1605.480469 1260.621094 C 1600.449219 1269.480469 1596.230469 1275.828125 1595.140625 1276.179688 C 1594.140625 1276.488281 1592.371094 1276.25 1591.210938 1275.628906 C 1589.25 1274.578125 1589.160156 1274.050781 1589.75 1266.960938 C 1594.230469 1213.191406 1670.121094 1123.070312 1746.191406 1081.179688 C 1748.339844 1080 1752.558594 1077.671875 1755.570312 1076.019531 C 1769.308594 1068.441406 1795.449219 1058.648438 1815.429688 1053.578125 C 1828.121094 1050.359375 1849.339844 1047.910156 1864.488281 1047.910156 C 1887.101562 1047.910156 1910.449219 1053.28125 1929.589844 1062.890625 C 1945.828125 1071.058594 1954.628906 1077 1971.101562 1090.910156 C 1981.5 1099.710938 1984.730469 1101.96875 1985.359375 1100.898438 C 2005.441406 1066.839844 2011.058594 1058.28125 2023.320312 1043.039062 C 2036.71875 1026.398438 2055 1009.019531 2071.410156 997.320312 C 2081.128906 990.398438 2102.109375 979.839844 2113.609375 976.078125 C 2131.511719 970.230469 2143.71875 968.269531 2161.808594 968.339844 C 2184.390625 968.421875 2196.890625 971.070312 2217.320312 980.070312 C 2227.699219 984.660156 2240.960938 993.449219 2252.5 1003.398438 C 2259.910156 1009.789062 2276.929688 1027.210938 2285.339844 1037.011719 C 2288.640625 1040.859375 2291.660156 1043.820312 2292.050781 1043.570312 C 2292.839844 1043.078125 2300.601562 1030.011719 2303.25 1024.699219 C 2304.179688 1022.839844 2308.628906 1014.808594 2313.140625 1006.839844 C 2334.839844 968.539062 2348.121094 948.859375 2367.53125 926.238281 C 2389.769531 900.308594 2408.21875 885.5 2430.128906 876.019531 C 2441.800781 870.960938 2450.839844 869.070312 2463.519531 869.058594 C 2477.378906 869.058594 2486.820312 871.460938 2499.359375 878.210938 C 2519.828125 889.21875 2541.140625 916.03125 2553.300781 946.058594 C 2561.789062 967.019531 2565.441406 979.75 2570.179688 1004.910156 C 2575.179688 1031.550781 2574.089844 1053.921875 2567.570312 1058.191406 C 2565.539062 1059.53125 2565.078125 1059.519531 2562.980469 1058.148438 C 2558.320312 1055.101562 2548.328125 1038.058594 2533.738281 1008.289062 C 2513.648438 967.320312 2513.058594 966.191406 2504.390625 951.820312 C 2493.988281 934.578125 2484.640625 923.980469 2475.570312 919.121094 C 2468.878906 915.539062 2468.300781 915.398438 2461.679688 915.890625 C 2438.808594 917.589844 2409.988281 942.621094 2379.96875 986.859375 C 2369.410156 1002.398438 2362.730469 1013.519531 2348.980469 1038.378906 C 2329.488281 1073.648438 2324.03125 1081.609375 2314.480469 1088.660156 C 2308.558594 1093.039062 2299.890625 1096.140625 2293.570312 1096.140625 C 2287.648438 1096.140625 2278.570312 1093.070312 2272.449219 1089.011719 C 2267.46875 1085.710938 2262.289062 1080.410156 2238.851562 1054.628906 C 2221.910156 1036.011719 2208.539062 1025.960938 2191.730469 1019.238281 C 2168.46875 1009.929688 2140.628906 1012.210938 2113.429688 1025.648438 C 2102.878906 1030.859375 2097.789062 1034.160156 2087.480469 1042.488281 C 2069.890625 1056.710938 2052.910156 1076.851562 2037.769531 1101.449219 C 2024.570312 1122.890625 2016.679688 1134.769531 2012.378906 1139.628906 C 2007.769531 1144.839844 1997.828125 1150.199219 1991.429688 1150.921875 C 1987.46875 1151.371094 1987 1151.660156 1987.429688 1153.460938 C 1987.691406 1154.589844 1988.191406 1157.679688 1988.550781 1160.328125 C 1988.890625 1162.980469 1990.050781 1169.941406 1991.109375 1175.78125 C 1992.179688 1181.621094 1993.628906 1190.089844 1994.339844 1194.601562 C 1997.890625 1217.308594 2005.171875 1258.808594 2017.53125 1326.851562 C 2019.820312 1339.429688 2021.339844 1347.75 2027.570312 1381.871094 C 2029.179688 1390.628906 2031.589844 1403.878906 2032.941406 1411.308594 C 2034.289062 1418.75 2036.640625 1431.339844 2038.179688 1439.308594 C 2039.71875 1447.269531 2042.140625 1460.089844 2043.558594 1467.789062 C 2046.421875 1483.28125 2050.519531 1505.089844 2054.179688 1524.25 C 2055.488281 1531.160156 2057.691406 1542.890625 2059.070312 1550.320312 C 2060.441406 1557.75 2062.800781 1570.351562 2064.308594 1578.308594 C 2065.820312 1586.28125 2068.210938 1599.089844 2069.628906 1606.789062 C 2073.171875 1626 2077.359375 1648.269531 2080.25 1663.261719 C 2081.578125 1670.160156 2084 1682.980469 2085.621094 1691.738281 C 2087.238281 1700.5 2089.601562 1712.871094 2090.859375 1719.25 C 2092.121094 1725.621094 2094.511719 1738.210938 2096.171875 1747.238281 C 2097.820312 1756.269531 2100.210938 1768.859375 2101.46875 1775.230469 C 2102.730469 1781.609375 2104.910156 1793.121094 2106.320312 1800.820312 C 2109.730469 1819.390625 2113.980469 1841.960938 2116.859375 1856.808594 C 2118.148438 1863.441406 2120.558594 1876.261719 2122.21875 1885.28125 C 2123.871094 1894.308594 2126.039062 1905.820312 2127.050781 1910.859375 C 2128.050781 1915.910156 2130.429688 1928.5 2132.351562 1938.859375 C 2134.269531 1949.210938 2136.660156 1961.808594 2137.679688 1966.851562 C 2138.691406 1971.890625 2140.871094 1983.410156 2142.53125 1992.429688 C 2144.191406 2001.460938 2146.570312 2014.058594 2147.839844 2020.429688 C 2149.089844 2026.800781 2151.46875 2039.179688 2153.101562 2047.941406 C 2154.738281 2056.699219 2157.148438 2069.511719 2158.460938 2076.410156 C 2159.769531 2083.320312 2162.160156 2095.910156 2163.761719 2104.410156 C 2165.371094 2112.898438 2167.730469 2125.28125 2169.011719 2131.921875 C 2170.289062 2138.550781 2172.691406 2151.371094 2174.339844 2160.398438 C 2176 2169.421875 2178.171875 2180.929688 2179.171875 2185.980469 C 2180.171875 2191.019531 2182.351562 2202.53125 2184.019531 2211.558594 C 2185.699219 2220.578125 2188.300781 2234.269531 2189.800781 2241.960938 C 2191.308594 2249.660156 2193.648438 2261.828125 2195.019531 2269 C 2197.578125 2282.390625 2201.691406 2303.761719 2205.789062 2324.980469 C 2207.058594 2331.621094 2210.511719 2349.648438 2213.429688 2365.039062 C 2219.421875 2396.550781 2222.429688 2412.410156 2225.910156 2430.679688 C 2227.230469 2437.589844 2229.660156 2450.621094 2231.328125 2459.640625 C 2232.988281 2468.671875 2235.371094 2481.269531 2236.621094 2487.640625 C 2237.859375 2494.011719 2240.210938 2506.171875 2241.820312 2514.671875 C 2247.550781 2544.789062 2249.75 2556.351562 2252.589844 2571.140625 C 2254.160156 2579.371094 2256.570312 2591.960938 2257.941406 2599.128906 C 2259.308594 2606.300781 2261.449219 2617.371094 2262.691406 2623.75 C 2263.929688 2630.121094 2266.320312 2642.710938 2268 2651.738281 C 2269.691406 2660.769531 2272.089844 2673.578125 2273.328125 2680.21875 C 2274.578125 2686.859375 2276.96875 2699.671875 2278.628906 2708.691406 C 2280.300781 2717.71875 2282.679688 2730.53125 2283.921875 2737.171875 C 2285.160156 2743.808594 2287.328125 2755.535156 2288.738281 2763.234375 C 2290.148438 2770.933594 2292.539062 2783.964844 2294.058594 2792.195312 C 2295.578125 2800.425781 2297.980469 2813.457031 2299.390625 2821.152344 C 2300.800781 2828.851562 2303.191406 2841.667969 2304.699219 2849.632812 C 2306.199219 2857.59375 2308.601562 2870.625 2310.019531 2878.589844 C 2311.429688 2886.554688 2313.609375 2898.5 2314.851562 2905.136719 C 2316.089844 2911.773438 2317.390625 2919.15625 2317.730469 2921.546875 C 2318.070312 2923.9375 2319.359375 2931.535156 2320.609375 2938.441406 C 2321.871094 2945.34375 2324 2957.503906 2325.359375 2965.46875 C 2326.71875 2973.433594 2329.160156 2987.765625 2330.78125 2997.324219 C 2332.410156 3006.878906 2334.800781 3020.78125 2336.089844 3028.214844 C 2340.148438 3051.65625 2343.148438 3069.570312 2343.761719 3074.066406 C 2344.089844 3076.453125 2345.441406 3085.359375 2346.769531 3093.855469 C 2352.46875 3130.371094 2353.96875 3140.121094 2356.28125 3155.636719 C 2357.621094 3164.660156 2359.171875 3176.171875 2359.730469 3181.214844 C 2360.289062 3186.257812 2361.378906 3194.296875 2362.160156 3199.074219 C 2364.5 3213.5 2365.839844 3235.140625 2364.480469 3236.773438 C 2363.058594 3238.488281 2360.269531 3238.585938 2358.980469 3236.957031 Z M 2890.660156 3139.464844 C 2888.851562 3135.003906 2883.558594 3110.792969 2880.378906 3092.40625 C 2875.75 3065.589844 2873.898438 3055.167969 2872.238281 3046.550781 C 2871.210938 3041.242188 2868.839844 3026.472656 2866.96875 3013.730469 C 2865.089844 3000.988281 2861.410156 2976.445312 2858.78125 2959.191406 C 2856.160156 2941.933594 2852.671875 2917.390625 2851.03125 2904.652344 C 2849.390625 2891.910156 2847 2873.445312 2845.699219 2863.625 C 2844.410156 2853.800781 2842.070312 2835.992188 2840.5 2824.046875 C 2834.429688 2777.917969 2831.769531 2755.808594 2824.5 2691.320312 C 2823.128906 2679.109375 2821.160156 2661.941406 2820.121094 2653.191406 C 2819.078125 2644.429688 2817.390625 2629.660156 2816.351562 2620.371094 C 2814.410156 2603.011719 2813.128906 2591.691406 2809.019531 2555.691406 C 2807.71875 2544.269531 2805.328125 2522.339844 2803.71875 2506.941406 C 2802.109375 2491.539062 2799.738281 2468.960938 2798.449219 2456.75 C 2797.148438 2444.53125 2794.75 2421.941406 2793.128906 2406.550781 C 2788.890625 2366.511719 2785.730469 2337.289062 2783 2312.910156 C 2780.300781 2288.730469 2776.039062 2248.839844 2772.378906 2213.480469 C 2763.480469 2127.359375 2758.089844 2076.738281 2746.769531 1973.121094 C 2745.71875 1963.570312 2743.980469 1947.28125 2742.910156 1936.921875 C 2741.820312 1926.570312 2739.890625 1907.890625 2738.589844 1895.410156 C 2737.289062 1882.941406 2735.339844 1864.039062 2734.261719 1853.421875 C 2731.910156 1830.410156 2729.371094 1806.53125 2725.558594 1771.859375 C 2716.75 1691.589844 2709.851562 1626.308594 2704.800781 1575.410156 C 2701.640625 1543.578125 2698.300781 1511.210938 2694.660156 1477.429688 C 2690.71875 1440.75 2682.550781 1360.839844 2681.640625 1350.011719 C 2680.839844 1340.480469 2675.441406 1288.398438 2668.671875 1225 C 2665.441406 1194.671875 2661.109375 1152.699219 2660.308594 1143.921875 C 2660.019531 1140.730469 2658.769531 1129.21875 2657.519531 1118.339844 C 2649.53125 1048.300781 2645.570312 1010.210938 2644.378906 991.890625 C 2643.210938 973.96875 2643.558594 964.710938 2645.460938 962.398438 C 2646.910156 960.660156 2650.628906 960.558594 2652.019531 962.238281 C 2654.96875 965.800781 2675.53125 1055.578125 2685.890625 1110.128906 C 2697.890625 1173.351562 2704.839844 1212.261719 2712.058594 1256.859375 C 2727.109375 1349.769531 2734.71875 1398.761719 2743.339844 1458.128906 C 2744.691406 1467.421875 2746.871094 1482.410156 2748.179688 1491.429688 C 2749.488281 1500.460938 2750.839844 1510.011719 2751.171875 1512.671875 C 2751.5 1515.320312 2752.378906 1521.191406 2753.109375 1525.699219 C 2753.851562 1530.210938 2755.078125 1538.679688 2755.851562 1544.519531 C 2757.128906 1554.210938 2763.320312 1597.96875 2769.449219 1640.570312 C 2773.628906 1669.671875 2777.570312 1698.71875 2784.898438 1754.480469 C 2786.191406 1764.300781 2788.539062 1782.109375 2790.109375 1794.058594 C 2791.679688 1806 2794.121094 1824.679688 2795.53125 1835.570312 C 2796.929688 1846.449219 2799.121094 1863.171875 2800.378906 1872.730469 C 2801.648438 1882.28125 2802.949219 1892.5 2803.269531 1895.410156 C 2803.589844 1898.339844 2804.890625 1908.539062 2806.160156 1918.101562 C 2813.421875 1972.929688 2821.949219 2045.589844 2837.019531 2181.148438 C 2838.339844 2193.089844 2840.71875 2214.378906 2842.28125 2228.449219 C 2846.949219 2270.328125 2849.929688 2300.621094 2858.269531 2391.101562 C 2863.609375 2448.921875 2865.480469 2469.648438 2866.039062 2477.019531 C 2866.359375 2481.269531 2867.429688 2492.988281 2868.429688 2503.078125 C 2869.421875 2513.171875 2870.480469 2524.890625 2870.78125 2529.140625 C 2871.089844 2533.390625 2872.410156 2550.328125 2873.71875 2566.789062 C 2875.039062 2583.25 2877.441406 2614.960938 2879.058594 2637.261719 C 2880.679688 2659.558594 2882.859375 2688.878906 2883.878906 2702.421875 C 2887.199219 2746.160156 2891 2803.820312 2892.558594 2834.183594 C 2893.109375 2844.800781 2894.410156 2866.738281 2895.460938 2882.929688 C 2900.558594 2961.933594 2903.480469 3073.101562 2901.328125 3106.402344 C 2900.070312 3125.789062 2898.480469 3138.609375 2897.089844 3140.429688 C 2895.539062 3142.457031 2891.640625 3141.871094 2890.660156 3139.457031 Z M 2618.140625 3113.882812 C 2615.121094 3110.542969 2600.03125 3063.480469 2591.910156 3032.070312 C 2589.359375 3022.195312 2575.160156 2962.746094 2570.601562 2942.78125 C 2562.929688 2909.273438 2540.179688 2795.242188 2529.679688 2737.648438 C 2487.78125 2507.941406 2448.441406 2262.609375 2413.339844 2012.21875 C 2392.03125 1860.191406 2370.390625 1678.738281 2350.089844 1481.78125 C 2347.960938 1461.070312 2345.761719 1440 2345.210938 1434.960938 C 2344.648438 1429.921875 2342.261719 1406.019531 2339.890625 1381.871094 C 2324.980469 1229.621094 2320.140625 1170.640625 2320.128906 1141 C 2320.121094 1129.851562 2321.300781 1127.019531 2325.949219 1127.019531 C 2331.789062 1127.019531 2331.699219 1126.621094 2343.289062 1210.039062 C 2351.53125 1269.308594 2352.808594 1278.75 2357.710938 1316.230469 C 2368 1394.980469 2370.179688 1412.050781 2393.5 1597.621094 C 2407.410156 1708.351562 2411.21875 1737.449219 2426.359375 1849.078125 C 2446.191406 1995.179688 2449.070312 2015.230469 2483.339844 2246.300781 C 2487.039062 2271.261719 2491.378906 2300.578125 2492.980469 2311.460938 C 2494.589844 2322.351562 2504.558594 2387.511719 2515.140625 2456.261719 C 2567.980469 2799.574219 2587.191406 2914.40625 2616.511719 3062.171875 C 2621.269531 3086.160156 2625.160156 3107.539062 2625.160156 3109.679688 C 2625.160156 3112.539062 2624.671875 3113.835938 2623.289062 3114.570312 C 2620.730469 3115.945312 2619.910156 3115.835938 2618.140625 3113.875 Z M 2223.789062 455.488281 C 2213.359375 450.339844 2201.121094 424.980469 2194.429688 394.609375 C 2191.339844 380.640625 2191.339844 351.929688 2194.429688 336.910156 C 2201.570312 302.089844 2217.878906 273.261719 2238.058594 259.789062 C 2247.539062 253.460938 2251.859375 251.558594 2261.558594 249.410156 C 2271.800781 247.140625 2278.261719 247.410156 2290.871094 250.621094 C 2297.710938 252.371094 2299.628906 252.53125 2302.589844 251.601562 C 2304.539062 250.988281 2313.300781 245.230469 2322.058594 238.800781 C 2365.078125 207.210938 2392.671875 192.230469 2414.238281 188.71875 C 2444.910156 183.730469 2468.308594 194.128906 2480.53125 218.179688 C 2486.949219 230.820312 2488.539062 238.308594 2488.5 255.828125 C 2488.5 271.308594 2487.480469 276.921875 2481.289062 296.859375 C 2471.351562 328.828125 2444.738281 363.628906 2416.171875 382.019531 C 2385.390625 401.839844 2352.421875 411.730469 2317.230469 411.699219 C 2298.660156 411.691406 2284.71875 409.699219 2272.148438 405.269531 C 2264.710938 402.640625 2261.828125 400.378906 2262.378906 397.570312 C 2262.878906 394.980469 2266.46875 393.648438 2276.199219 392.429688 C 2314.851562 387.589844 2349.269531 377.378906 2372.730469 363.789062 C 2399.328125 348.390625 2416.488281 332.339844 2430.378906 309.890625 C 2437.539062 298.308594 2439.46875 294.308594 2443.261719 283.320312 C 2450.511719 262.230469 2451.308594 247.410156 2445.800781 235.648438 C 2443.230469 230.171875 2442.269531 229.089844 2438 226.929688 C 2432.269531 224.019531 2426.050781 223.730469 2415.828125 225.871094 C 2408.878906 227.339844 2390.058594 235.671875 2381.46875 241.101562 C 2367.101562 250.160156 2358.71875 255.808594 2344.738281 265.839844 C 2326.660156 278.808594 2320.140625 282.769531 2312.710938 285.328125 C 2305.261719 287.890625 2294.53125 287.808594 2286.339844 285.121094 C 2282.230469 283.769531 2277.390625 283.019531 2272.320312 282.960938 C 2264.960938 282.871094 2264.230469 283.050781 2257.878906 286.71875 C 2239.011719 297.609375 2221.738281 331.261719 2217.75 364.921875 C 2215.320312 385.359375 2216.96875 409.839844 2222.21875 431.039062 C 2224.511719 440.289062 2228.851562 450.339844 2230.558594 450.339844 C 2230.929688 450.339844 2231.730469 451.238281 2232.308594 452.328125 C 2234.609375 456.621094 2229.75 458.421875 2223.789062 455.488281 Z M 2223.789062 455.488281 "/>
</svg>
